{"glyphs":{"0":{"ha":921,"x_min":32,"x_max":889,"o":"m 32 486 q 62 701 32 606 q 147 863 92 796 q 281 965 201 929 q 461 1000 361 1000 q 640 965 560 1000 q 774 863 719 929 q 859 701 829 796 q 889 486 889 606 q 860 275 889 368 q 776 118 831 182 q 642 20 722 54 q 461 -14 563 -14 q 279 20 360 -14 q 144 118 199 54 q 61 275 90 182 q 32 486 32 368 m 214 488 q 278 243 214 325 q 463 161 343 161 q 645 243 583 161 q 707 488 707 325 q 645 738 707 650 q 463 825 583 825 q 278 738 343 825 q 214 488 214 651 z "},"1":{"ha":488,"x_min":32,"x_max":457,"o":"m 157 168 l 157 818 l 35 818 l 35 986 l 146 986 q 285 941 238 986 q 332 797 332 896 l 332 168 l 457 168 l 457 0 l 32 0 l 32 168 l 157 168 z "},"2":{"ha":838,"x_min":32,"x_max":806,"o":"m 454 1000 q 599 977 535 1000 q 710 913 664 954 q 781 816 756 872 q 806 692 806 760 q 763 538 806 597 q 655 439 719 478 q 515 375 590 400 q 375 326 440 350 q 267 272 310 303 q 225 193 225 242 l 225 168 l 782 168 l 782 0 l 50 0 l 50 171 q 93 326 50 267 q 199 424 136 386 q 337 488 263 463 q 475 538 411 513 q 581 599 539 564 q 624 696 624 635 q 578 791 624 757 q 450 825 532 825 q 363 815 401 825 q 297 785 325 806 q 247 734 268 765 q 214 660 226 703 l 32 660 q 158 910 49 819 q 454 1000 267 1000 z "},"3":{"ha":854,"x_min":32,"x_max":822,"o":"m 93 986 l 768 986 l 768 838 l 518 647 l 542 644 q 749 544 675 626 q 822 335 822 461 q 794 196 822 260 q 717 85 767 132 q 598 13 667 39 q 447 -14 529 -14 q 288 9 360 -14 q 163 75 217 32 q 76 182 110 118 q 32 326 42 246 l 214 326 q 299 202 242 243 q 444 161 356 161 q 523 174 488 161 q 585 211 558 188 q 626 267 611 235 q 640 338 640 299 q 588 453 640 414 q 433 492 536 492 l 313 492 l 313 686 l 472 807 l 93 807 l 93 986 z "},"4":{"ha":853,"x_min":19,"x_max":810,"o":"m 726 986 l 726 363 l 810 363 l 810 194 l 726 194 l 726 0 l 551 0 l 551 194 l 19 194 l 19 338 l 501 986 l 726 986 m 551 363 l 551 758 l 256 363 l 551 363 z "},"5":{"ha":854,"x_min":32,"x_max":822,"o":"m 133 986 l 768 986 l 768 818 l 283 818 l 258 661 l 503 661 q 638 638 579 661 q 738 574 697 615 q 801 472 779 532 q 822 339 822 413 q 794 199 822 264 q 716 88 765 135 q 598 13 667 40 q 449 -14 529 -14 q 288 9 361 -14 q 162 75 215 32 q 74 182 108 118 q 32 326 40 246 l 214 326 q 299 202 242 243 q 444 161 356 161 q 523 174 488 161 q 585 209 558 186 q 626 263 611 232 q 640 331 640 293 q 631 399 640 369 q 600 450 621 429 q 549 482 579 471 q 481 493 519 493 l 197 493 l 67 571 l 133 986 z "},"6":{"ha":849,"x_min":32,"x_max":817,"o":"m 442 -14 q 138 117 243 -14 q 32 493 32 247 q 134 871 32 742 q 433 1000 236 1000 q 678 921 581 1000 q 815 694 776 842 l 633 694 q 599 751 619 726 q 555 792 579 775 q 502 817 531 808 q 443 825 474 825 q 350 810 390 825 q 282 765 310 796 q 238 687 254 735 q 215 572 222 639 q 254 610 231 592 q 307 640 278 628 q 370 660 336 653 q 439 668 404 668 q 597 644 526 668 q 716 576 667 621 q 791 467 765 531 q 817 322 817 403 q 790 183 817 246 q 715 77 764 121 q 597 10 667 33 q 442 -14 526 -14 m 240 338 q 294 208 240 256 q 439 161 347 161 q 585 206 536 161 q 635 338 635 250 q 585 471 635 424 q 439 518 536 518 q 356 506 393 518 q 293 471 318 494 q 254 414 268 447 q 240 338 240 381 z "},"7":{"ha":781,"x_min":19,"x_max":761,"o":"m 181 0 q 215 218 183 114 q 296 422 246 322 q 410 619 346 522 q 543 811 474 715 l 19 811 l 19 986 l 761 986 l 761 836 q 616 619 688 724 q 489 413 544 515 q 398 209 433 311 q 361 0 363 107 l 181 0 z "},"8":{"ha":865,"x_min":32,"x_max":833,"o":"m 32 301 q 62 442 32 381 q 146 543 92 504 q 87 621 107 575 q 67 725 67 667 q 93 837 67 786 q 167 924 119 888 q 283 980 215 960 q 433 1000 351 1000 q 582 980 514 1000 q 698 924 650 960 q 772 837 746 888 q 799 725 799 786 q 778 621 799 667 q 719 543 758 575 q 803 442 774 504 q 833 301 833 381 q 805 171 833 229 q 724 72 776 113 q 598 8 672 31 q 433 -14 524 -14 q 267 8 342 -14 q 141 72 193 31 q 60 171 89 113 q 32 301 32 229 m 214 314 q 228 249 214 278 q 270 201 242 221 q 340 172 299 182 q 435 161 381 161 q 529 171 489 161 q 597 201 569 181 q 638 249 625 221 q 651 314 651 278 q 598 427 651 388 q 435 467 544 467 q 269 427 325 467 q 214 314 214 388 m 249 718 q 296 642 249 668 q 435 617 343 617 q 515 623 481 617 q 572 642 550 629 q 606 673 594 654 q 617 718 617 692 q 606 763 617 743 q 571 797 594 783 q 513 817 547 810 q 435 825 479 825 q 356 817 390 825 q 298 797 322 810 q 261 763 274 783 q 249 718 249 743 z "},"9":{"ha":849,"x_min":32,"x_max":817,"o":"m 408 1000 q 711 869 606 1000 q 817 493 817 739 q 715 115 817 244 q 415 -14 613 -14 q 170 65 268 -14 q 33 292 72 144 l 215 292 q 250 235 231 260 q 294 194 269 211 q 347 169 318 178 q 406 161 375 161 q 499 176 458 161 q 567 221 539 190 q 610 299 594 251 q 635 414 626 347 q 594 376 618 394 q 542 346 571 358 q 479 326 513 333 q 410 318 446 318 q 252 342 322 318 q 133 412 182 367 q 58 521 85 457 q 32 664 32 585 q 58 803 32 740 q 133 909 85 865 q 252 976 182 953 q 408 1000 322 1000 m 608 649 q 556 778 608 731 q 410 825 503 825 q 264 781 314 825 q 214 649 214 736 q 263 515 214 563 q 410 468 313 468 q 493 481 456 468 q 556 516 531 493 q 594 572 581 539 q 608 649 608 606 z "},"\u0000":{"ha":0,"x_min":0,"x_max":0,"o":""},"\r":{"ha":347,"x_min":0,"x_max":0,"o":""}," ":{"ha":347,"x_min":0,"x_max":0,"o":""},"!":{"ha":239,"x_min":32,"x_max":207,"o":"m 32 986 l 207 986 l 200 289 l 39 289 l 32 986 m 35 0 l 35 169 l 204 169 l 204 0 l 35 0 z "},"\"":{"ha":363,"x_min":32,"x_max":331,"o":"m 46 722 l 32 1000 l 164 1000 l 164 722 l 46 722 m 213 722 l 199 1000 l 331 1000 l 331 722 l 213 722 z "},"#":{"ha":1189,"x_min":32,"x_max":1158,"o":"m 286 404 l 342 561 l 149 561 l 149 722 l 400 722 l 501 1000 l 676 1000 l 575 722 l 789 722 l 890 1000 l 1064 1000 l 963 722 l 1158 722 l 1158 561 l 904 561 l 847 404 l 1042 404 l 1042 243 l 788 243 l 696 -12 l 522 -12 l 615 243 l 400 243 l 308 -12 l 133 -12 l 226 243 l 32 243 l 32 404 l 286 404 m 675 404 l 731 561 l 517 561 l 460 404 l 675 404 z "},"$":{"ha":874,"x_min":32,"x_max":842,"o":"m 356 -4 q 135 104 221 22 q 32 313 49 186 l 213 313 q 267 226 232 260 q 356 176 301 192 l 356 432 q 244 463 299 444 q 148 513 190 482 q 79 592 106 544 q 53 708 53 639 q 76 813 53 764 q 139 899 99 861 q 234 962 179 936 q 356 996 289 988 l 356 1099 l 518 1099 l 518 990 q 721 889 640 967 q 828 688 801 811 l 647 688 q 594 769 626 739 q 518 813 563 800 l 518 574 q 635 544 578 563 q 739 494 693 526 q 813 411 785 461 q 842 285 842 361 q 818 173 842 225 q 752 83 794 121 q 650 20 710 44 q 518 -11 590 -4 l 518 -115 l 356 -115 l 356 -4 m 518 167 q 621 209 582 176 q 660 289 660 242 q 649 328 660 313 q 619 357 639 344 q 574 378 600 369 q 518 394 549 388 l 518 167 m 235 703 q 244 668 235 683 q 269 642 253 653 q 308 623 285 631 q 356 608 331 615 l 356 817 q 307 801 329 813 q 268 776 285 790 q 243 743 251 761 q 235 703 235 725 z "},"%":{"ha":1378,"x_min":32,"x_max":1347,"o":"m 1122 986 l 449 0 l 260 0 l 933 986 l 1122 986 m 760 275 q 781 404 760 349 q 842 497 803 460 q 935 554 881 535 q 1053 574 989 574 q 1172 554 1118 574 q 1265 497 1226 535 q 1326 404 1304 460 q 1347 275 1347 349 q 1326 149 1347 203 q 1265 58 1304 94 q 1172 4 1226 22 q 1053 -14 1118 -14 q 935 4 989 -14 q 842 58 881 22 q 781 147 803 93 q 760 275 760 201 m 32 701 q 53 831 32 775 q 114 924 75 886 q 207 981 153 961 q 325 1000 261 1000 q 444 981 390 1000 q 538 924 499 961 q 598 831 576 886 q 619 701 619 775 q 598 575 619 629 q 538 485 576 521 q 444 431 499 449 q 325 413 390 413 q 207 431 261 413 q 114 484 153 449 q 53 574 75 519 q 32 701 32 628 m 917 279 q 926 213 917 240 q 955 168 936 185 q 999 144 974 151 q 1053 136 1024 136 q 1108 144 1083 136 q 1151 169 1133 151 q 1179 213 1169 186 q 1189 279 1189 240 q 1151 388 1189 353 q 1053 424 1113 424 q 956 389 994 424 q 917 279 917 354 m 189 706 q 199 639 189 667 q 228 594 210 611 q 271 570 246 578 q 325 563 296 563 q 381 570 356 563 q 424 595 406 578 q 451 640 442 613 q 461 706 461 667 q 423 815 461 779 q 325 850 385 850 q 228 815 267 850 q 189 706 189 781 z "},"&":{"ha":1061,"x_min":32,"x_max":1029,"o":"m 933 396 q 895 278 918 332 q 842 178 872 224 l 1029 0 l 769 0 l 710 57 q 587 4 654 22 q 442 -14 519 -14 q 273 8 349 -14 q 144 71 197 31 q 61 168 90 111 q 32 294 32 225 q 72 456 32 379 q 185 589 113 532 q 165 649 171 618 q 158 718 158 681 q 180 833 158 781 q 242 922 201 885 q 341 980 282 960 q 474 1000 400 1000 q 708 921 615 1000 q 829 694 800 842 l 647 694 q 578 792 625 758 q 465 825 532 825 q 409 818 433 825 q 369 797 385 811 q 347 763 354 783 q 340 717 340 743 q 366 638 340 676 q 453 542 392 599 l 704 307 q 733 365 721 335 q 756 432 746 396 l 933 396 m 444 161 q 512 168 481 161 q 571 189 543 175 l 313 435 q 299 447 304 442 q 289 457 294 451 q 233 390 253 426 q 214 311 214 354 q 231 250 214 278 q 279 202 249 222 q 352 172 310 182 q 444 161 394 161 z "},"'":{"ha":196,"x_min":32,"x_max":164,"o":"m 46 722 l 32 1000 l 164 1000 l 164 722 l 46 722 z "},"(":{"ha":428,"x_min":32,"x_max":397,"o":"m 32 493 q 54 697 32 604 q 116 857 76 789 q 213 963 156 925 q 340 1000 269 1000 l 397 1000 l 397 839 l 365 839 q 292 819 322 839 q 244 759 263 800 q 216 652 225 718 q 207 493 207 586 q 216 335 207 401 q 244 228 225 269 q 292 167 263 186 q 365 149 322 149 l 397 149 l 397 -14 l 340 -14 q 213 24 269 -14 q 116 129 156 61 q 54 290 76 197 q 32 493 32 383 z "},")":{"ha":428,"x_min":32,"x_max":397,"o":"m 397 493 q 375 290 397 383 q 313 129 353 197 q 215 24 272 61 q 89 -14 158 -14 l 32 -14 l 32 149 l 64 149 q 137 167 107 149 q 185 228 167 186 q 213 335 204 269 q 222 493 222 401 q 213 652 222 586 q 185 759 204 718 q 137 819 167 800 q 64 839 107 839 l 32 839 l 32 1000 l 89 1000 q 215 963 158 1000 q 313 857 272 925 q 375 697 353 789 q 397 493 397 604 z "},"*":{"ha":539,"x_min":32,"x_max":507,"o":"m 329 1000 l 321 850 l 446 932 l 507 828 l 372 761 l 507 693 l 447 589 l 321 671 l 329 521 l 210 521 l 218 671 l 92 589 l 32 693 l 167 761 l 32 829 l 93 932 l 218 850 l 210 1000 l 329 1000 z "},"+":{"ha":689,"x_min":32,"x_max":657,"o":"m 264 575 l 264 806 l 425 806 l 425 575 l 657 575 l 657 413 l 425 413 l 425 181 l 264 181 l 264 413 l 32 413 l 32 575 l 264 575 z "},",":{"ha":233,"x_min":32,"x_max":201,"o":"m 32 169 l 201 169 l 201 -57 q 177 -126 201 -104 q 108 -149 153 -149 l 33 -149 l 33 -58 l 107 -58 l 107 0 l 32 0 l 32 169 z "},"-":{"ha":689,"x_min":32,"x_max":657,"o":"m 657 574 l 657 413 l 32 413 l 32 574 l 657 574 z "},".":{"ha":233,"x_min":32,"x_max":201,"o":"m 32 0 l 32 169 l 201 169 l 201 0 l 32 0 z "},"/":{"ha":604,"x_min":32,"x_max":574,"o":"m 400 1000 l 574 1000 l 206 -12 l 32 -12 l 400 1000 z "},":":{"ha":233,"x_min":32,"x_max":201,"o":"m 32 417 l 32 586 l 201 586 l 201 417 l 32 417 m 32 0 l 32 169 l 201 169 l 201 0 l 32 0 z "},";":{"ha":233,"x_min":32,"x_max":201,"o":"m 32 169 l 201 169 l 201 -57 q 177 -126 201 -104 q 108 -149 153 -149 l 33 -149 l 33 -58 l 107 -58 l 107 0 l 32 0 l 32 169 m 32 417 l 32 586 l 201 586 l 201 417 l 32 417 z "},"<":{"ha":599,"x_min":32,"x_max":567,"o":"m 303 486 l 567 349 l 567 164 l 32 446 l 32 540 l 567 824 l 567 640 l 303 500 l 303 486 z "},"=":{"ha":689,"x_min":32,"x_max":657,"o":"m 657 388 l 657 226 l 32 226 l 32 388 l 657 388 m 657 754 l 657 593 l 32 593 l 32 754 l 657 754 z "},">":{"ha":599,"x_min":32,"x_max":567,"o":"m 296 500 l 32 640 l 32 824 l 567 540 l 567 446 l 32 164 l 32 349 l 296 486 l 296 500 z "},"?":{"ha":838,"x_min":32,"x_max":806,"o":"m 454 1000 q 597 978 532 1000 q 708 916 663 957 q 780 819 754 875 q 806 696 806 764 q 781 581 806 626 q 721 503 757 535 q 642 451 685 472 q 563 412 599 431 q 502 372 526 393 q 478 321 478 351 l 478 289 l 317 289 l 317 340 q 340 430 317 394 q 397 490 363 465 q 471 533 431 515 q 544 572 511 551 q 601 620 578 593 q 624 690 624 647 q 576 788 624 751 q 453 825 529 825 q 298 787 354 825 q 214 660 242 749 l 32 660 q 158 910 49 819 q 454 1000 268 1000 m 313 0 l 313 169 l 483 169 l 483 0 l 313 0 z "},"@":{"ha":1372,"x_min":32,"x_max":1340,"o":"m 32 378 q 78 653 32 531 q 210 863 125 776 q 417 995 294 949 q 690 1042 539 1042 q 1176 881 1011 1042 q 1340 406 1340 719 q 1256 103 1340 207 q 1003 0 1172 0 l 878 0 l 864 53 q 771 3 824 19 q 656 -14 718 -14 q 515 10 576 -14 q 409 81 453 35 q 343 197 365 128 q 321 356 321 265 q 344 518 321 447 q 410 637 367 589 q 515 710 453 685 q 656 736 578 736 q 771 718 718 736 q 864 664 824 700 l 864 722 l 1032 722 l 1032 135 l 1061 135 q 1118 151 1093 135 q 1160 201 1143 168 q 1186 283 1176 233 q 1196 401 1196 333 q 1074 787 1196 664 q 690 910 951 910 q 472 874 568 910 q 311 771 376 839 q 211 603 246 703 q 176 379 176 504 q 210 135 176 242 q 308 -42 243 29 q 465 -151 372 -114 q 678 -187 558 -187 l 1049 -187 l 1049 -319 l 665 -319 q 397 -273 515 -319 q 199 -137 279 -226 q 75 82 118 -47 q 32 378 32 211 m 494 357 q 507 267 494 306 q 543 203 519 228 q 601 166 567 178 q 681 154 636 154 q 755 165 721 154 q 813 200 789 176 q 850 263 836 224 q 864 357 864 301 q 851 449 864 410 q 815 516 839 489 q 758 556 792 543 q 681 568 724 568 q 602 556 636 568 q 544 517 568 543 q 507 450 519 490 q 494 357 494 410 z "},"A":{"ha":1057,"x_min":18,"x_max":1040,"o":"m 454 986 l 606 986 l 1040 0 l 849 0 l 761 200 l 299 200 l 208 0 l 18 0 l 454 986 m 686 368 l 529 725 l 371 368 l 686 368 z "},"B":{"ha":925,"x_min":46,"x_max":894,"o":"m 458 588 q 547 593 511 588 q 603 611 582 599 q 634 645 625 624 q 643 700 643 667 q 634 756 643 733 q 603 793 625 779 q 544 813 581 807 q 451 818 507 818 l 221 818 l 221 588 l 458 588 m 507 168 q 667 195 621 168 q 713 293 713 222 q 669 391 713 363 q 514 419 625 419 l 221 419 l 221 168 l 507 168 m 46 986 l 463 986 q 628 970 560 986 q 741 919 697 954 q 805 831 785 885 q 825 699 825 776 q 804 602 825 646 q 751 532 783 558 q 809 497 782 519 q 855 442 836 474 q 884 373 874 411 q 894 292 894 335 q 874 158 894 214 q 807 68 853 103 q 690 17 761 33 q 519 0 619 0 l 46 0 l 46 986 z "},"C":{"ha":1025,"x_min":32,"x_max":993,"o":"m 813 646 q 761 726 789 692 q 699 781 733 760 q 622 814 665 803 q 525 825 579 825 q 394 802 451 825 q 297 736 338 779 q 235 631 256 693 q 214 492 214 569 q 235 349 214 411 q 297 246 256 288 q 394 183 338 204 q 525 161 451 161 q 699 204 632 161 q 813 340 765 247 l 993 340 q 932 190 974 256 q 831 78 890 124 q 693 10 771 33 q 522 -14 615 -14 q 320 21 411 -14 q 165 121 229 56 q 67 280 101 186 q 32 492 32 374 q 67 705 32 610 q 165 865 101 800 q 320 965 229 931 q 522 1000 411 1000 q 695 976 617 1000 q 833 906 774 951 q 933 795 893 861 q 993 646 974 729 l 813 646 z "},"D":{"ha":950,"x_min":46,"x_max":918,"o":"m 46 986 l 451 986 q 644 954 558 986 q 791 860 731 922 q 885 704 851 797 q 918 489 918 611 q 885 273 918 365 q 791 120 851 181 q 644 30 731 60 q 451 0 558 0 l 46 0 l 46 986 m 440 168 q 560 185 506 168 q 653 242 614 203 q 715 342 693 281 q 736 489 736 403 q 715 637 736 575 q 653 740 693 699 q 560 799 614 781 q 440 818 506 818 l 221 818 l 221 168 l 440 168 z "},"E":{"ha":793,"x_min":46,"x_max":749,"o":"m 46 986 l 749 986 l 749 818 l 221 818 l 221 578 l 624 578 l 624 410 l 221 410 l 221 168 l 749 168 l 749 0 l 46 0 l 46 986 z "},"F":{"ha":793,"x_min":46,"x_max":749,"o":"m 46 986 l 749 986 l 749 818 l 221 818 l 221 578 l 624 578 l 624 410 l 221 410 l 221 0 l 46 0 l 46 986 z "},"G":{"ha":1025,"x_min":32,"x_max":993,"o":"m 813 646 q 761 726 789 692 q 699 781 733 760 q 622 814 665 803 q 525 825 579 825 q 394 802 451 825 q 297 736 338 779 q 235 631 256 693 q 214 492 214 569 q 238 344 214 407 q 303 241 261 282 q 403 181 344 200 q 531 161 461 161 q 716 208 643 161 q 813 340 789 254 l 504 340 l 504 508 l 851 508 q 919 502 893 508 q 963 481 946 496 q 985 440 979 465 q 992 378 992 415 l 992 0 l 831 0 l 817 69 q 685 8 760 29 q 522 -14 610 -14 q 319 21 410 -14 q 165 121 228 56 q 67 280 101 186 q 32 492 32 374 q 67 705 32 610 q 165 865 101 800 q 320 965 229 931 q 522 1000 411 1000 q 695 976 617 1000 q 833 906 774 951 q 933 795 893 861 q 993 646 974 729 l 813 646 z "},"H":{"ha":925,"x_min":46,"x_max":879,"o":"m 46 986 l 221 986 l 221 578 l 704 578 l 704 986 l 879 986 l 879 0 l 704 0 l 704 410 l 221 410 l 221 0 l 46 0 l 46 986 z "},"I":{"ha":265,"x_min":46,"x_max":221,"o":"m 46 986 l 221 986 l 221 0 l 46 0 l 46 986 z "},"J":{"ha":703,"x_min":18,"x_max":657,"o":"m 657 986 l 657 408 q 633 226 657 304 q 562 99 610 149 q 440 24 514 49 q 265 0 367 0 l 18 0 l 18 175 l 269 175 q 368 188 328 175 q 434 231 408 201 q 471 309 460 261 q 482 426 482 357 l 482 818 l 318 818 l 318 986 l 657 986 z "},"K":{"ha":924,"x_min":46,"x_max":906,"o":"m 46 986 l 221 986 l 221 578 l 271 578 q 335 582 308 578 q 385 599 363 586 q 428 633 408 611 q 474 689 449 654 l 690 986 l 906 986 l 660 647 q 588 558 624 599 q 521 493 553 517 q 588 428 553 469 q 660 339 624 388 l 906 0 l 690 0 l 474 297 q 427 354 447 332 q 385 389 407 376 q 335 406 363 401 q 271 410 308 410 l 221 410 l 221 0 l 46 0 l 46 986 z "},"L":{"ha":772,"x_min":46,"x_max":754,"o":"m 221 986 l 221 168 l 754 168 l 754 0 l 46 0 l 46 986 l 221 986 z "},"M":{"ha":1081,"x_min":46,"x_max":1035,"o":"m 861 569 l 603 0 l 478 0 l 221 569 l 221 0 l 46 0 l 46 986 l 232 986 l 540 300 l 850 986 l 1035 986 l 1035 0 l 861 0 l 861 569 z "},"N":{"ha":943,"x_min":46,"x_max":899,"o":"m 232 986 l 724 294 l 724 986 l 899 986 l 899 0 l 713 0 l 221 692 l 221 0 l 46 0 l 46 986 l 232 986 z "},"O":{"ha":1043,"x_min":32,"x_max":1011,"o":"m 32 486 q 68 709 32 613 q 169 870 104 806 q 324 967 233 935 q 522 1000 414 1000 q 720 967 631 1000 q 874 869 810 933 q 975 708 939 804 q 1011 486 1011 613 q 975 266 1011 360 q 874 110 939 172 q 720 17 810 47 q 522 -14 631 -14 q 324 17 414 -14 q 169 110 233 47 q 68 266 104 172 q 32 486 32 360 m 214 488 q 237 338 214 400 q 301 236 260 275 q 399 179 342 197 q 525 161 456 161 q 648 180 592 161 q 744 238 704 199 q 807 339 785 276 q 829 488 829 401 q 807 638 829 574 q 744 743 785 701 q 648 805 704 785 q 525 825 592 825 q 399 805 456 825 q 301 743 342 785 q 237 638 260 701 q 214 488 214 575 z "},"P":{"ha":894,"x_min":46,"x_max":863,"o":"m 475 557 q 569 563 531 557 q 633 585 608 569 q 669 626 658 601 q 681 689 681 651 q 669 751 681 726 q 633 791 658 776 q 569 812 608 806 q 475 818 531 818 l 221 818 l 221 557 l 475 557 m 485 986 q 656 969 585 986 q 773 917 726 953 q 841 826 819 882 q 863 690 863 769 q 773 460 863 531 q 485 389 683 389 l 221 389 l 221 0 l 46 0 l 46 986 l 485 986 z "},"Q":{"ha":1043,"x_min":32,"x_max":1011,"o":"m 32 486 q 68 709 32 613 q 169 870 104 806 q 324 967 233 935 q 522 1000 414 1000 q 720 967 631 1000 q 874 869 810 933 q 975 708 939 804 q 1011 486 1011 613 q 981 283 1011 371 q 897 133 951 196 q 766 35 843 71 q 597 -11 689 0 l 597 -99 l 754 -99 l 754 -267 l 608 -267 q 469 -222 515 -267 q 422 -78 422 -176 l 422 -7 q 263 42 335 6 q 139 141 190 79 q 60 289 88 203 q 32 486 32 375 m 214 488 q 237 338 214 400 q 301 236 260 275 q 399 179 342 197 q 525 161 456 161 q 648 180 592 161 q 744 238 704 199 q 807 339 785 276 q 829 488 829 401 q 807 638 829 574 q 744 743 785 701 q 648 805 704 785 q 525 825 592 825 q 399 805 456 825 q 301 743 342 785 q 237 638 260 701 q 214 488 214 575 z "},"R":{"ha":897,"x_min":46,"x_max":867,"o":"m 46 986 l 472 986 q 640 970 571 986 q 753 919 710 954 q 818 828 797 883 q 839 694 839 774 q 774 492 839 558 q 558 414 708 426 q 590 380 574 399 q 621 339 606 361 l 867 0 l 650 0 l 433 297 q 392 351 411 329 q 352 385 372 372 q 308 404 332 399 q 253 410 283 410 l 221 410 l 221 0 l 46 0 l 46 986 m 464 578 q 556 584 519 578 q 616 603 593 590 q 648 640 639 617 q 657 696 657 663 q 647 753 657 729 q 615 792 638 778 q 556 812 593 806 q 464 818 519 818 l 221 818 l 221 578 l 464 578 z "},"S":{"ha":874,"x_min":32,"x_max":842,"o":"m 417 1000 q 566 978 497 1000 q 688 917 635 957 q 776 819 740 876 q 828 688 813 761 l 647 688 q 560 795 615 765 q 419 825 504 825 q 347 817 381 825 q 289 792 314 808 q 249 753 264 775 q 235 703 235 731 q 260 649 235 669 q 329 615 286 628 q 426 592 372 601 q 538 571 481 583 q 649 539 596 558 q 746 488 703 519 q 815 408 789 457 q 842 285 842 358 q 814 165 842 219 q 737 70 786 110 q 619 8 688 31 q 469 -14 551 -14 q 303 9 379 -14 q 170 74 228 32 q 77 177 113 117 q 32 313 42 238 l 213 313 q 301 199 240 236 q 468 161 363 161 q 543 170 508 161 q 603 197 578 179 q 644 238 629 214 q 660 289 660 261 q 633 347 660 325 q 565 383 607 369 q 468 408 522 397 q 356 431 414 418 q 244 463 299 443 q 148 513 190 482 q 79 591 106 544 q 53 708 53 638 q 81 823 53 769 q 157 916 108 876 q 272 978 206 956 q 417 1000 339 1000 z "},"T":{"ha":935,"x_min":18,"x_max":918,"o":"m 381 818 l 18 818 l 18 986 l 918 986 l 918 818 l 556 818 l 556 0 l 381 0 l 381 818 z "},"U":{"ha":992,"x_min":46,"x_max":947,"o":"m 947 986 l 947 435 q 918 235 947 319 q 831 96 889 151 q 690 13 774 40 q 496 -14 607 -14 q 302 13 386 -14 q 161 96 218 40 q 75 235 104 151 q 46 435 46 319 l 46 986 l 221 986 l 221 444 q 240 307 221 361 q 297 220 260 253 q 385 174 333 188 q 499 161 436 161 q 703 227 633 161 q 772 444 772 293 l 772 986 l 947 986 z "},"V":{"ha":1057,"x_min":18,"x_max":1040,"o":"m 211 986 l 529 261 l 846 986 l 1040 986 l 606 0 l 454 0 l 18 986 l 211 986 z "},"W":{"ha":1383,"x_min":18,"x_max":1367,"o":"m 985 261 l 1183 986 l 1367 986 l 1094 0 l 875 0 l 693 663 l 511 0 l 292 0 l 18 986 l 203 986 l 401 261 l 601 986 l 785 986 l 985 261 z "},"X":{"ha":929,"x_min":18,"x_max":911,"o":"m 331 493 l 18 986 l 225 986 l 465 608 l 704 986 l 911 986 l 599 493 l 911 0 l 704 0 l 465 378 l 225 0 l 18 0 l 331 493 z "},"Y":{"ha":929,"x_min":18,"x_max":911,"o":"m 378 421 l 18 986 l 225 986 l 465 608 l 704 986 l 911 986 l 551 421 l 551 0 l 378 0 l 378 421 z "},"Z":{"ha":844,"x_min":46,"x_max":800,"o":"m 46 149 l 549 818 l 58 818 l 58 986 l 786 986 l 786 838 l 283 168 l 800 168 l 800 0 l 46 0 l 46 149 z "},"[":{"ha":365,"x_min":32,"x_max":333,"o":"m 32 1000 l 333 1000 l 333 844 l 194 844 l 194 142 l 333 142 l 333 -14 l 32 -14 l 32 1000 z "},"\\":{"ha":604,"x_min":32,"x_max":574,"o":"m 574 -12 l 400 -12 l 32 1000 l 206 1000 l 574 -12 z "},"]":{"ha":365,"x_min":32,"x_max":333,"o":"m 333 -14 l 32 -14 l 32 142 l 171 142 l 171 844 l 32 844 l 32 1000 l 333 1000 l 333 -14 z "},"^":{"ha":478,"x_min":32,"x_max":444,"o":"m 232 843 l 168 722 l 32 722 l 200 1042 l 274 1042 l 444 722 l 308 722 l 243 843 l 232 843 z "},"_":{"ha":689,"x_min":32,"x_max":657,"o":"m 657 0 l 657 -161 l 32 -161 l 32 0 l 657 0 z "},"`":{"ha":438,"x_min":32,"x_max":407,"o":"m 32 1132 l 263 1132 l 407 889 l 289 889 l 32 1132 z "},"a":{"ha":756,"x_min":32,"x_max":711,"o":"m 207 240 q 244 177 207 200 q 342 154 281 154 q 422 165 385 154 q 485 194 458 175 q 528 240 513 213 q 543 300 543 267 l 543 335 l 353 335 q 241 313 275 335 q 207 240 207 292 m 32 222 q 110 394 32 329 q 326 460 188 460 l 543 460 l 543 561 l 126 561 l 126 722 l 525 722 q 665 678 618 722 q 711 535 711 633 l 711 0 l 557 0 l 543 75 q 444 9 503 32 q 315 -14 385 -14 q 196 2 249 -14 q 107 48 143 18 q 51 122 71 78 q 32 222 32 167 z "},"b":{"ha":789,"x_min":46,"x_max":757,"o":"m 46 0 l 46 986 l 214 986 l 214 657 q 309 717 254 697 q 428 736 364 736 q 562 713 501 736 q 665 641 622 689 q 733 522 708 593 q 757 356 757 451 q 733 192 757 261 q 665 76 708 122 q 562 8 622 31 q 428 -14 501 -14 q 309 4 364 -14 q 214 61 254 22 l 214 0 l 46 0 m 214 357 q 227 263 214 301 q 265 200 240 224 q 322 165 289 176 q 397 154 356 154 q 472 165 439 154 q 531 200 506 176 q 569 263 556 224 q 582 357 582 301 q 569 453 582 414 q 531 519 556 493 q 472 556 506 544 q 397 568 439 568 q 322 556 356 568 q 265 519 289 544 q 227 453 240 493 q 214 357 214 414 z "},"c":{"ha":767,"x_min":32,"x_max":735,"o":"m 735 268 q 703 154 731 206 q 628 65 675 103 q 521 7 582 28 q 389 -14 460 -14 q 241 11 307 -14 q 128 84 175 36 q 57 201 82 132 q 32 360 32 271 q 57 519 32 449 q 128 637 82 589 q 241 710 175 685 q 389 736 307 736 q 519 716 458 736 q 626 658 579 696 q 701 569 672 621 q 735 453 731 517 l 561 453 q 498 540 542 513 q 389 568 454 568 q 312 556 346 568 q 255 517 278 543 q 219 451 232 490 q 207 360 207 413 q 219 269 207 307 q 255 205 232 231 q 312 167 278 179 q 389 154 346 154 q 501 183 458 154 q 561 268 543 211 l 735 268 z "},"d":{"ha":789,"x_min":32,"x_max":743,"o":"m 575 61 q 480 4 535 22 q 361 -14 425 -14 q 227 8 288 -14 q 124 76 167 31 q 56 192 81 122 q 32 356 32 261 q 56 522 32 451 q 124 641 81 593 q 227 713 167 689 q 361 736 288 736 q 480 717 425 736 q 575 657 535 697 l 575 986 l 743 986 l 743 0 l 575 0 l 575 61 m 207 357 q 220 263 207 301 q 258 200 233 224 q 317 165 283 176 q 392 154 351 154 q 467 165 433 154 q 524 200 500 176 q 562 263 549 224 q 575 357 575 301 q 562 453 575 414 q 524 519 549 493 q 467 556 500 544 q 392 568 433 568 q 317 556 351 568 q 258 519 283 544 q 220 453 233 493 q 207 357 207 414 z "},"e":{"ha":767,"x_min":32,"x_max":735,"o":"m 735 268 q 703 154 731 206 q 628 65 675 103 q 521 7 582 28 q 389 -14 460 -14 q 241 11 307 -14 q 128 84 175 36 q 57 201 82 132 q 32 360 32 271 q 57 519 32 449 q 128 637 82 589 q 241 710 175 685 q 389 736 307 736 q 532 713 468 736 q 641 647 596 690 q 710 542 686 603 q 735 407 735 482 l 735 333 l 210 333 l 208 321 q 222 246 208 278 q 260 194 236 214 q 317 164 285 174 q 389 154 350 154 q 501 183 458 154 q 561 268 543 211 l 735 268 m 560 458 q 499 540 542 513 q 389 568 456 568 q 332 562 358 568 q 285 542 306 556 q 249 508 264 529 q 224 458 233 488 l 560 458 z "},"f":{"ha":610,"x_min":32,"x_max":564,"o":"m 32 722 l 118 722 l 118 799 q 165 942 118 897 q 304 986 211 986 l 564 986 l 564 825 l 286 825 l 286 722 l 492 722 l 492 561 l 286 561 l 286 0 l 118 0 l 118 561 l 32 561 l 32 722 z "},"g":{"ha":789,"x_min":32,"x_max":743,"o":"m 32 357 q 56 524 32 453 q 124 642 81 594 q 227 713 167 689 q 361 736 288 736 q 480 717 425 736 q 575 658 535 697 l 575 722 l 743 722 l 743 -160 q 697 -303 743 -258 q 558 -347 650 -347 l 110 -347 l 110 -186 l 575 -186 l 575 61 q 480 5 535 24 q 361 -14 425 -14 q 227 9 288 -14 q 124 77 167 32 q 56 192 81 122 q 32 357 32 263 m 207 358 q 220 264 207 303 q 258 201 233 225 q 317 165 283 176 q 392 154 351 154 q 467 165 433 154 q 524 201 500 176 q 562 264 549 225 q 575 358 575 303 q 562 455 575 415 q 524 520 549 494 q 467 557 500 546 q 392 568 433 568 q 317 557 351 568 q 258 520 283 546 q 220 455 233 494 q 207 358 207 415 z "},"h":{"ha":801,"x_min":46,"x_max":756,"o":"m 46 0 l 46 986 l 214 986 l 214 635 q 331 710 264 683 q 478 736 399 736 q 685 668 615 736 q 756 465 756 600 l 756 -1 l 589 -1 l 589 367 q 582 463 589 424 q 559 525 575 501 q 517 558 543 549 q 451 568 490 568 q 367 556 410 568 q 291 519 325 544 q 235 453 257 493 q 214 357 214 414 l 214 0 l 46 0 z "},"i":{"ha":261,"x_min":46,"x_max":215,"o":"m 46 817 l 46 986 l 215 986 l 215 817 l 46 817 m 47 0 l 47 722 l 214 722 l 214 0 l 47 0 z "},"j":{"ha":546,"x_min":46,"x_max":501,"o":"m 331 817 l 331 986 l 501 986 l 501 817 l 331 817 m 500 -160 q 453 -303 500 -258 q 314 -347 407 -347 l 46 -347 l 46 -186 l 332 -186 l 332 722 l 500 722 l 500 -160 z "},"k":{"ha":749,"x_min":46,"x_max":731,"o":"m 46 0 l 46 986 l 214 986 l 214 450 l 238 450 q 287 452 268 450 q 319 460 306 454 q 342 476 332 465 q 365 504 351 486 l 524 722 l 731 722 l 550 474 q 497 407 524 436 q 447 361 469 378 q 497 315 469 344 q 550 249 524 286 l 731 0 l 524 0 l 365 218 q 336 256 349 242 q 310 276 324 269 q 281 286 297 283 q 238 289 264 289 l 214 289 l 214 0 l 46 0 z "},"l":{"ha":258,"x_min":46,"x_max":214,"o":"m 46 0 l 46 986 l 214 986 l 214 0 l 46 0 z "},"m":{"ha":1265,"x_min":46,"x_max":1219,"o":"m 46 0 l 46 722 l 214 722 l 214 640 q 322 712 261 688 q 454 736 383 736 q 600 705 542 736 q 688 611 658 674 q 803 704 735 672 q 957 736 872 736 q 1153 668 1086 736 q 1219 465 1219 600 l 1219 -1 l 1051 -1 l 1051 367 q 1045 463 1051 425 q 1025 525 1039 501 q 988 558 1011 549 q 929 568 964 568 q 854 556 892 568 q 786 519 817 544 q 736 453 756 493 q 717 357 717 414 l 717 -1 l 549 -1 l 549 367 q 542 463 549 425 q 522 525 536 501 q 485 558 508 549 q 426 568 461 568 q 351 556 389 568 q 283 519 314 544 q 233 453 253 493 q 214 357 214 414 l 214 0 l 46 0 z "},"n":{"ha":801,"x_min":46,"x_max":756,"o":"m 46 0 l 46 722 l 214 722 l 214 635 q 331 710 264 683 q 478 736 399 736 q 685 668 615 736 q 756 465 756 600 l 756 -1 l 589 -1 l 589 367 q 582 463 589 424 q 559 525 575 501 q 517 558 543 549 q 451 568 490 568 q 367 556 410 568 q 291 519 325 544 q 235 453 257 493 q 214 357 214 414 l 214 0 l 46 0 z "},"o":{"ha":788,"x_min":32,"x_max":756,"o":"m 32 356 q 59 522 32 451 q 133 641 86 593 q 247 713 181 689 q 394 736 314 736 q 541 713 475 736 q 655 641 607 689 q 729 522 703 593 q 756 356 756 451 q 729 192 756 261 q 655 76 703 122 q 541 8 607 31 q 394 -14 475 -14 q 247 8 314 -14 q 133 76 181 31 q 59 192 86 122 q 32 356 32 261 m 207 357 q 221 263 207 301 q 260 200 235 224 q 320 165 285 176 q 397 154 356 154 q 472 165 438 154 q 530 201 506 176 q 568 263 554 225 q 582 357 582 301 q 568 453 582 414 q 530 519 554 493 q 472 556 506 544 q 397 568 438 568 q 320 556 356 568 q 260 519 285 544 q 221 454 235 494 q 207 357 207 414 z "},"p":{"ha":789,"x_min":46,"x_max":757,"o":"m 214 663 q 309 718 254 700 q 428 736 364 736 q 562 715 501 736 q 665 647 622 693 q 733 532 708 601 q 757 367 757 463 q 733 201 757 272 q 665 81 708 129 q 562 10 622 33 q 428 -14 501 -14 q 309 6 364 -14 q 214 65 254 25 l 214 -347 l 46 -347 l 46 722 l 214 722 l 214 663 m 214 365 q 227 269 214 310 q 265 203 240 229 q 322 166 289 178 q 397 154 356 154 q 472 166 439 154 q 531 203 506 178 q 569 269 556 229 q 582 365 582 310 q 569 460 582 421 q 531 523 556 499 q 472 558 506 547 q 397 568 439 568 q 322 558 356 568 q 265 523 289 547 q 227 460 240 499 q 214 365 214 421 z "},"q":{"ha":789,"x_min":32,"x_max":743,"o":"m 743 722 l 743 -347 l 575 -347 l 575 65 q 480 6 535 25 q 361 -14 425 -14 q 227 10 288 -14 q 124 81 167 33 q 56 201 81 129 q 32 367 32 272 q 56 532 32 463 q 124 647 81 601 q 227 715 167 693 q 361 736 288 736 q 480 718 425 736 q 575 663 535 700 l 575 722 l 743 722 m 575 365 q 562 460 575 421 q 524 523 549 499 q 467 558 500 547 q 392 568 433 568 q 317 558 351 568 q 258 523 283 547 q 220 460 233 499 q 207 365 207 421 q 220 269 207 310 q 258 203 233 229 q 317 166 283 178 q 392 154 351 154 q 467 166 433 154 q 524 203 500 178 q 562 269 549 229 q 575 365 575 310 z "},"r":{"ha":597,"x_min":46,"x_max":579,"o":"m 46 535 q 92 678 46 633 q 232 722 139 722 l 579 722 l 579 561 l 214 561 l 214 0 l 46 0 l 46 535 z "},"s":{"ha":699,"x_min":33,"x_max":667,"o":"m 336 736 q 543 676 464 736 q 657 496 622 617 l 482 496 q 424 556 460 538 q 328 575 389 575 q 284 571 303 575 q 251 558 265 567 q 231 539 238 550 q 224 514 224 528 q 242 479 224 492 q 292 459 261 467 q 363 446 324 451 q 444 431 403 440 q 526 408 486 422 q 597 368 567 393 q 647 304 628 343 q 667 208 667 265 q 647 115 667 156 q 588 45 626 74 q 495 1 550 17 q 371 -14 440 -14 q 241 3 300 -14 q 138 51 182 19 q 67 126 94 82 q 33 228 40 171 l 207 228 q 266 166 229 185 q 369 147 303 147 q 420 151 397 147 q 459 164 443 156 q 483 184 475 172 q 492 211 492 196 q 472 247 492 233 q 422 268 453 260 q 351 283 392 276 q 270 299 311 290 q 189 324 229 308 q 117 364 149 339 q 67 426 86 389 q 49 517 49 464 q 70 605 49 564 q 131 674 92 646 q 222 719 169 703 q 336 736 275 736 z "},"t":{"ha":610,"x_min":32,"x_max":564,"o":"m 118 722 l 132 917 l 286 917 l 286 722 l 492 722 l 492 561 l 286 561 l 286 161 l 564 161 l 564 0 l 304 0 q 165 44 211 0 q 118 188 118 89 l 118 561 l 32 561 l 32 722 l 118 722 z "},"u":{"ha":801,"x_min":46,"x_max":756,"o":"m 756 721 l 756 -1 l 589 -1 l 589 86 q 471 11 539 38 q 324 -15 403 -15 q 117 53 188 -15 q 46 257 46 122 l 46 722 l 214 722 l 214 354 q 221 258 214 297 q 244 196 228 219 q 285 163 260 172 q 351 153 311 153 q 434 165 392 153 q 511 202 476 176 q 567 268 546 228 q 589 364 589 308 l 589 721 l 756 721 z "},"v":{"ha":881,"x_min":18,"x_max":861,"o":"m 208 726 l 440 239 l 671 726 l 861 726 l 517 0 l 364 0 l 18 726 l 208 726 z "},"w":{"ha":1158,"x_min":18,"x_max":1140,"o":"m 817 221 l 965 722 l 1140 722 l 926 0 l 707 0 l 579 432 l 451 0 l 232 0 l 18 722 l 193 722 l 342 222 l 490 722 l 668 722 l 817 221 z "},"x":{"ha":767,"x_min":18,"x_max":750,"o":"m 260 364 l 18 726 l 218 726 l 383 478 l 550 726 l 750 726 l 508 364 l 750 0 l 550 0 l 383 250 l 218 0 l 18 0 l 260 364 z "},"y":{"ha":801,"x_min":46,"x_max":756,"o":"m 756 -160 q 709 -303 756 -258 q 571 -347 663 -347 l 124 -347 l 124 -186 l 589 -186 l 589 78 q 472 8 538 32 q 329 -15 406 -15 q 117 53 189 -15 q 46 257 46 122 l 46 722 l 214 722 l 214 354 q 221 258 214 297 q 244 196 228 219 q 285 163 260 172 q 351 153 311 153 q 434 165 392 153 q 511 202 476 176 q 567 268 546 228 q 589 364 589 308 l 589 722 l 756 722 l 756 -160 z "},"z":{"ha":742,"x_min":46,"x_max":696,"o":"m 46 133 l 421 561 l 60 561 l 60 722 l 669 722 l 669 589 l 294 161 l 696 161 l 696 0 l 46 0 l 46 133 z "},"{":{"ha":422,"x_min":32,"x_max":390,"o":"m 32 578 l 50 578 q 94 580 78 578 q 118 588 110 582 q 129 607 126 594 q 132 640 132 619 l 132 818 q 142 897 132 863 q 175 953 153 931 q 231 988 197 976 q 308 1000 264 1000 l 390 1000 l 390 844 l 294 844 l 294 593 q 281 535 294 561 q 240 494 267 510 q 281 451 267 478 q 294 396 294 425 l 294 142 l 390 142 l 390 -14 l 308 -14 q 231 -2 264 -14 q 175 33 197 10 q 142 90 153 56 q 132 169 132 124 l 132 347 q 129 381 132 368 q 118 399 126 393 q 94 408 110 406 q 50 410 78 410 l 32 410 l 32 578 z "},"|":{"ha":226,"x_min":32,"x_max":194,"o":"m 32 1125 l 194 1125 l 194 -137 l 32 -137 l 32 1125 z "},"}":{"ha":422,"x_min":32,"x_max":390,"o":"m 390 410 l 372 410 q 328 408 344 410 q 304 399 313 406 q 293 381 296 393 q 290 347 290 368 l 290 169 q 280 90 290 124 q 248 33 269 56 q 193 -2 226 10 q 114 -14 160 -14 l 32 -14 l 32 142 l 128 142 l 128 396 q 142 451 128 425 q 182 494 156 478 q 142 535 156 510 q 128 593 128 561 l 128 844 l 32 844 l 32 1000 l 114 1000 q 193 988 160 1000 q 248 953 226 976 q 280 897 269 931 q 290 818 290 863 l 290 640 q 293 607 290 619 q 304 588 296 594 q 328 580 313 582 q 372 578 344 578 l 390 578 l 390 410 z "},"~":{"ha":979,"x_min":33,"x_max":946,"o":"m 681 446 q 750 474 729 446 q 771 563 771 503 q 771 571 771 567 l 946 571 q 879 349 946 424 q 683 274 813 274 q 583 292 626 274 q 505 338 539 310 q 443 397 471 365 q 391 457 415 429 q 343 503 367 485 q 292 522 319 522 q 228 491 249 522 q 207 396 207 460 l 33 396 q 33 401 33 399 q 97 619 33 543 q 283 694 160 694 q 382 676 339 694 q 458 629 425 657 q 519 569 492 601 q 571 510 546 538 q 622 464 596 482 q 681 446 647 446 z "},"¡":{"ha":239,"x_min":32,"x_max":207,"o":"m 39 433 l 200 433 l 207 -264 l 32 -264 l 39 433 m 204 722 l 204 553 l 35 553 l 35 722 l 204 722 z "},"¢":{"ha":767,"x_min":32,"x_max":735,"o":"m 310 126 q 193 167 244 138 q 106 243 142 196 q 51 353 71 290 q 32 493 32 415 q 51 635 32 571 q 106 745 71 699 q 193 822 142 792 q 310 864 244 851 l 310 986 l 460 986 l 460 864 q 564 831 515 854 q 649 772 613 807 q 708 689 685 736 q 735 586 731 642 l 561 586 q 523 655 549 629 q 460 692 497 681 l 460 297 q 525 333 500 308 q 561 401 550 358 l 735 401 q 709 300 731 347 q 651 217 688 253 q 566 158 615 182 q 460 125 517 135 l 460 0 l 310 0 l 310 126 m 207 492 q 214 422 207 453 q 234 368 221 392 q 266 328 247 344 q 310 303 285 311 l 310 686 q 266 660 285 676 q 234 619 247 643 q 214 564 221 596 q 207 492 207 532 z "},"£":{"ha":865,"x_min":32,"x_max":833,"o":"m 88 513 l 88 651 q 113 790 88 726 q 184 901 138 854 q 295 974 231 947 q 439 1000 360 1000 q 594 976 524 1000 q 715 908 664 953 q 797 801 767 864 q 833 660 826 738 l 653 660 q 624 734 642 703 q 581 785 606 765 q 522 815 556 806 q 447 825 489 825 q 312 774 361 825 q 263 640 263 722 l 263 513 l 650 513 l 650 351 l 263 351 l 263 169 l 833 169 l 833 0 l 32 0 l 32 169 l 88 169 l 88 351 l 32 351 l 32 513 l 88 513 z "},"¤":{"ha":615,"x_min":32,"x_max":583,"o":"m 565 490 q 558 428 565 456 q 539 376 551 400 l 583 332 l 469 217 l 419 268 q 365 252 394 257 q 308 247 336 247 q 248 252 275 247 q 196 267 221 257 l 146 217 l 32 332 l 75 375 q 57 428 63 400 q 51 490 51 456 q 58 553 51 524 q 76 610 64 583 l 32 656 l 146 769 l 197 718 q 249 735 222 729 q 308 740 276 740 q 365 734 336 740 q 417 717 393 728 l 469 769 l 583 656 l 538 608 q 558 553 550 583 q 565 490 565 524 m 422 493 q 389 580 422 551 q 308 608 356 608 q 227 580 260 608 q 194 493 194 551 q 227 408 194 439 q 308 378 260 378 q 353 385 332 378 q 388 408 374 393 q 413 445 403 424 q 422 493 422 467 z "},"¥":{"ha":957,"x_min":32,"x_max":925,"o":"m 392 164 l 167 164 l 167 325 l 392 325 l 392 407 l 167 407 l 167 568 l 297 568 l 32 986 l 239 986 l 479 608 l 718 986 l 925 986 l 660 568 l 792 568 l 792 407 l 565 407 l 565 325 l 792 325 l 792 164 l 565 164 l 565 0 l 392 0 l 392 164 z "},"¦":{"ha":226,"x_min":32,"x_max":194,"o":"m 32 1075 l 194 1075 l 194 504 l 32 504 l 32 1075 m 32 383 l 194 383 l 194 -187 l 32 -187 l 32 383 z "},"§":{"ha":697,"x_min":32,"x_max":665,"o":"m 206 228 q 265 166 228 185 q 368 147 301 147 q 419 151 397 147 q 458 164 442 156 q 482 184 474 172 q 490 211 490 196 q 458 255 490 240 q 376 279 425 269 q 269 300 326 289 q 162 335 211 311 q 80 403 113 360 q 47 517 47 446 q 58 579 47 550 q 86 632 68 608 q 47 692 63 657 q 32 778 32 728 q 110 941 32 882 q 328 1000 189 1000 q 560 935 471 1000 q 665 758 650 871 l 492 758 q 433 820 469 801 q 329 839 396 839 q 278 835 300 839 q 240 823 256 831 q 215 803 224 815 q 207 775 207 792 q 240 732 207 746 q 322 708 272 718 q 428 686 371 697 q 535 651 486 675 q 617 585 585 628 q 650 469 650 542 q 640 408 650 436 q 611 354 629 379 q 650 294 635 329 q 665 208 665 258 q 587 45 665 104 q 369 -14 508 -14 q 137 51 226 -14 q 32 228 47 115 l 206 228 m 222 514 q 242 478 222 490 q 294 458 263 465 q 367 445 326 450 q 447 429 407 440 q 467 449 460 438 q 475 474 475 460 q 455 508 475 496 q 403 528 435 521 q 330 541 371 536 q 249 557 289 546 q 229 538 236 549 q 222 514 222 528 z "},"¨":{"ha":476,"x_min":32,"x_max":444,"o":"m 32 889 l 32 1058 l 201 1058 l 201 889 l 32 889 m 275 889 l 275 1058 l 444 1058 l 444 889 l 275 889 z "},"©":{"ha":1060,"x_min":32,"x_max":1028,"o":"m 32 486 q 69 709 32 613 q 171 870 106 806 q 328 967 236 935 q 531 1000 421 1000 q 732 967 640 1000 q 889 869 824 933 q 991 708 954 804 q 1028 486 1028 613 q 991 266 1028 360 q 889 110 954 172 q 732 17 824 47 q 531 -14 640 -14 q 328 17 421 -14 q 171 110 236 47 q 69 266 106 172 q 32 486 32 360 m 171 489 q 197 317 171 388 q 272 203 224 247 q 385 138 319 158 q 532 118 451 118 q 677 138 611 118 q 790 203 743 158 q 863 319 838 249 q 889 489 889 389 q 863 658 889 588 q 790 776 838 729 q 677 846 743 824 q 532 868 611 868 q 385 846 451 868 q 272 777 319 824 q 197 659 224 731 q 171 489 171 588 m 793 408 q 701 261 769 313 q 525 210 633 210 q 322 286 396 210 q 249 493 249 363 q 322 701 249 625 q 525 776 396 776 q 701 725 632 776 q 793 579 769 674 l 690 579 q 625 655 663 632 q 528 678 588 678 q 397 628 443 678 q 351 493 351 578 q 398 358 351 406 q 529 310 444 310 q 626 333 589 310 q 690 408 663 356 l 793 408 z "},"ª":{"ha":358,"x_min":33,"x_max":326,"o":"m 108 778 q 124 750 108 760 q 167 740 140 740 q 201 744 186 740 q 228 757 217 749 q 247 777 240 765 q 254 804 254 789 l 254 818 l 172 818 q 124 809 139 818 q 108 778 108 800 m 33 769 q 67 844 33 815 q 160 872 100 872 l 254 872 l 254 917 l 74 917 l 74 986 l 246 986 q 306 967 286 986 q 326 906 326 949 l 326 674 l 260 674 l 254 706 q 212 678 238 688 q 156 668 186 668 q 104 675 126 668 q 66 694 82 682 q 42 726 50 707 q 33 769 33 746 z "},"«":{"ha":1029,"x_min":32,"x_max":997,"o":"m 357 485 l 567 375 l 567 192 l 32 474 l 32 510 l 567 793 l 567 610 l 357 499 l 357 485 m 788 485 l 997 375 l 997 192 l 463 474 l 463 510 l 997 793 l 997 610 l 788 499 l 788 485 z "},"¬":{"ha":689,"x_min":32,"x_max":657,"o":"m 657 574 l 657 225 l 494 225 l 494 413 l 32 413 l 32 574 l 657 574 z "},"®":{"ha":557,"x_min":32,"x_max":525,"o":"m 525 789 q 456 604 525 664 q 279 544 388 544 q 101 606 171 544 q 32 789 32 667 q 101 977 32 913 q 279 1042 171 1042 q 456 977 388 1042 q 525 789 525 913 m 442 792 q 397 924 442 882 q 281 965 351 965 q 160 924 206 965 q 115 792 115 882 q 160 661 115 700 q 281 622 206 622 q 345 631 315 622 q 397 660 375 640 q 430 713 418 681 q 442 792 442 746 m 185 910 l 288 910 q 356 894 336 910 q 376 840 376 878 q 361 793 376 808 q 310 775 346 778 q 325 757 317 768 l 383 676 l 326 676 l 275 747 q 256 768 264 763 q 236 774 249 774 l 229 774 l 229 676 l 185 676 l 185 910 m 285 817 q 320 822 311 817 q 329 842 329 826 q 320 862 329 857 q 285 867 311 867 l 229 867 l 229 817 l 285 817 z "},"¯":{"ha":689,"x_min":32,"x_max":657,"o":"m 657 986 l 657 825 l 32 825 l 32 986 l 657 986 z "},"°":{"ha":438,"x_min":32,"x_max":406,"o":"m 32 846 q 46 933 32 896 q 85 994 60 969 q 144 1030 110 1018 q 219 1042 178 1042 q 294 1030 260 1042 q 353 994 329 1018 q 392 933 378 969 q 406 846 406 896 q 392 761 406 797 q 353 702 378 725 q 294 667 329 679 q 219 656 260 656 q 144 667 178 656 q 85 702 110 679 q 46 761 60 725 q 32 846 32 797 m 124 847 q 131 798 124 818 q 151 765 138 778 q 182 747 164 753 q 221 742 200 742 q 259 747 242 742 q 289 766 276 753 q 309 799 301 779 q 317 847 317 818 q 309 896 317 875 q 289 930 301 917 q 259 949 276 943 q 221 956 242 956 q 182 949 200 956 q 151 930 164 943 q 131 897 138 917 q 124 847 124 876 z "},"±":{"ha":689,"x_min":32,"x_max":657,"o":"m 264 672 l 264 903 l 425 903 l 425 672 l 657 672 l 657 510 l 425 510 l 425 278 l 264 278 l 264 510 l 32 510 l 32 672 l 264 672 m 657 226 l 657 65 l 32 65 l 32 226 l 657 226 z "},"²":{"ha":439,"x_min":33,"x_max":407,"o":"m 238 1138 q 308 1126 276 1138 q 361 1095 339 1115 q 395 1048 383 1075 q 407 988 407 1021 q 386 914 407 943 q 334 866 365 885 q 266 835 303 847 q 199 812 229 824 q 147 785 168 800 q 126 747 126 771 l 126 735 l 396 735 l 396 654 l 42 654 l 42 738 q 63 813 42 783 q 114 860 83 842 q 180 890 144 878 q 247 914 215 901 q 299 944 278 926 q 319 990 319 961 q 297 1037 319 1021 q 235 1053 275 1053 q 192 1048 211 1053 q 160 1034 174 1043 q 138 1010 147 1025 q 121 974 128 994 l 33 974 q 94 1094 42 1050 q 238 1138 146 1138 z "},"³":{"ha":444,"x_min":33,"x_max":413,"o":"m 63 1122 l 386 1122 l 386 1051 l 265 960 l 278 960 q 377 910 342 950 q 413 810 413 871 q 399 743 413 774 q 362 690 386 713 q 305 654 338 667 q 232 642 272 642 q 156 653 190 642 q 95 685 121 664 q 53 736 69 706 q 33 806 38 767 l 119 806 q 161 746 133 767 q 231 725 189 725 q 269 732 251 725 q 299 750 286 739 q 318 777 311 761 q 325 811 325 793 q 300 866 325 847 q 226 885 275 885 l 168 885 l 168 978 l 244 1038 l 63 1038 l 63 1122 z "},"´":{"ha":438,"x_min":32,"x_max":407,"o":"m 150 889 l 32 889 l 176 1132 l 407 1132 l 150 889 z "},"¶":{"ha":915,"x_min":32,"x_max":883,"o":"m 646 0 l 471 0 l 471 389 l 410 389 q 122 460 213 389 q 32 690 32 531 q 53 826 32 769 q 122 917 75 882 q 239 969 168 953 q 410 986 310 986 l 646 986 l 646 0 m 883 0 l 710 0 l 710 986 l 883 986 l 883 0 m 214 689 q 225 626 214 651 q 261 585 236 601 q 325 563 286 569 q 419 557 364 557 l 471 557 l 471 818 l 419 818 q 325 812 364 818 q 261 791 286 806 q 225 751 236 776 q 214 689 214 726 z "},"·":{"ha":233,"x_min":32,"x_max":201,"o":"m 32 399 l 32 568 l 201 568 l 201 399 l 32 399 z "},"¸":{"ha":342,"x_min":32,"x_max":310,"o":"m 183 14 l 131 -49 l 142 -49 q 267 -86 225 -49 q 310 -183 310 -124 q 266 -287 310 -247 q 135 -326 222 -326 l 32 -326 l 32 -207 l 135 -207 q 177 -200 164 -207 q 190 -178 190 -193 q 178 -158 190 -164 q 139 -151 165 -151 l 32 -151 l 32 -49 l 81 14 l 183 14 z "},"¹":{"ha":265,"x_min":32,"x_max":233,"o":"m 92 733 l 92 1043 l 33 1043 l 33 1122 l 86 1122 q 153 1101 131 1122 q 175 1033 175 1081 l 175 733 l 233 733 l 233 654 l 32 654 l 32 733 l 92 733 z "},"º":{"ha":399,"x_min":32,"x_max":367,"o":"m 32 825 q 44 902 32 869 q 78 957 57 935 q 131 990 100 979 q 200 1000 163 1000 q 267 990 236 1000 q 319 957 297 979 q 354 902 342 935 q 367 825 367 869 q 354 750 367 782 q 319 697 342 718 q 267 665 297 676 q 200 654 236 654 q 131 665 163 654 q 78 696 100 675 q 44 749 57 717 q 32 825 32 782 m 113 826 q 119 782 113 800 q 138 753 126 764 q 165 737 149 742 q 201 732 181 732 q 235 738 219 732 q 262 753 250 743 q 280 782 274 764 q 286 826 286 800 q 280 870 286 851 q 262 901 274 889 q 235 918 250 913 q 201 924 219 924 q 165 918 181 924 q 138 901 149 913 q 119 870 126 889 q 113 826 113 851 z "},"»":{"ha":1029,"x_min":32,"x_max":997,"o":"m 242 499 l 32 610 l 32 793 l 567 510 l 567 474 l 32 192 l 32 375 l 242 485 l 242 499 m 672 499 l 463 610 l 463 793 l 997 510 l 997 474 l 463 192 l 463 375 l 672 485 l 672 499 z "},"¼":{"ha":889,"x_min":32,"x_max":856,"o":"m 111 597 l 111 907 l 53 907 l 53 986 l 106 986 q 172 965 150 986 q 194 897 194 944 l 194 597 l 253 597 l 253 518 l 51 518 l 51 597 l 111 597 m 836 986 l 163 0 l 32 0 l 706 986 l 836 986 m 817 474 l 817 174 l 856 174 l 856 93 l 817 93 l 817 0 l 732 0 l 732 93 l 478 93 l 478 163 l 708 474 l 817 474 m 732 174 l 732 364 l 590 174 l 732 174 z "},"½":{"ha":943,"x_min":32,"x_max":910,"o":"m 836 986 l 163 0 l 32 0 l 706 986 l 836 986 m 111 597 l 111 907 l 53 907 l 53 986 l 106 986 q 172 965 150 986 q 194 897 194 944 l 194 597 l 253 597 l 253 518 l 51 518 l 51 597 l 111 597 m 740 483 q 810 472 779 483 q 864 441 842 461 q 898 394 886 421 q 910 333 910 367 q 889 260 910 289 q 837 212 868 231 q 769 181 806 193 q 702 158 733 169 q 651 131 671 146 q 631 93 631 117 l 631 81 l 899 81 l 899 0 l 544 0 l 544 83 q 565 158 544 129 q 617 206 586 188 q 684 235 649 224 q 750 260 719 247 q 801 290 781 272 q 822 336 822 307 q 800 383 822 367 q 739 399 778 399 q 697 394 715 399 q 664 380 678 389 q 640 356 650 371 q 625 319 631 340 l 536 319 q 597 440 544 396 q 740 483 650 483 z "},"¾":{"ha":981,"x_min":33,"x_max":947,"o":"m 926 986 l 253 0 l 124 0 l 797 986 l 926 986 m 907 474 l 907 174 l 947 174 l 947 93 l 907 93 l 907 0 l 824 0 l 824 93 l 568 93 l 568 163 l 800 474 l 907 474 m 824 174 l 824 364 l 681 174 l 824 174 m 63 986 l 386 986 l 386 915 l 265 824 l 278 824 q 377 774 342 814 q 413 674 413 735 q 399 607 413 638 q 362 553 386 576 q 305 518 338 531 q 232 506 272 506 q 156 517 190 506 q 95 549 121 528 q 53 600 69 569 q 33 669 38 631 l 119 669 q 161 610 133 631 q 231 589 189 589 q 269 596 251 589 q 299 614 286 603 q 318 641 311 625 q 325 675 325 657 q 300 730 325 711 q 226 749 275 749 l 168 749 l 168 842 l 244 901 l 63 901 l 63 986 z "},"¿":{"ha":838,"x_min":32,"x_max":806,"o":"m 383 -278 q 240 -256 306 -278 q 129 -194 175 -235 q 58 -97 83 -153 q 32 28 32 -42 q 56 142 32 96 q 117 219 81 189 q 197 271 154 250 q 275 310 239 292 q 335 350 311 329 q 360 401 360 371 l 360 433 l 521 433 l 521 382 q 498 292 521 328 q 441 232 475 257 q 367 189 407 207 q 293 151 326 171 q 237 103 260 131 q 214 32 214 75 q 261 -66 214 -29 q 385 -103 308 -103 q 540 -65 485 -103 q 624 63 596 -26 l 806 63 q 679 -187 789 -97 q 383 -278 569 -278 m 525 722 l 525 553 l 356 553 l 356 722 l 525 722 z "},"À":{"ha":1057,"x_min":18,"x_max":1040,"o":"m 454 986 l 606 986 l 1040 0 l 849 0 l 761 200 l 299 200 l 208 0 l 18 0 l 454 986 m 686 368 l 529 725 l 371 368 l 686 368 m 347 1340 l 578 1340 l 722 1097 l 604 1097 l 347 1340 z "},"Á":{"ha":1057,"x_min":18,"x_max":1040,"o":"m 454 986 l 606 986 l 1040 0 l 849 0 l 761 200 l 299 200 l 208 0 l 18 0 l 454 986 m 686 368 l 529 725 l 371 368 l 686 368 m 469 1097 l 351 1097 l 496 1340 l 726 1340 l 469 1097 z "},"Â":{"ha":1057,"x_min":18,"x_max":1040,"o":"m 454 986 l 606 986 l 1040 0 l 849 0 l 761 200 l 299 200 l 208 0 l 18 0 l 454 986 m 686 368 l 529 725 l 371 368 l 686 368 m 535 1221 l 407 1097 l 289 1097 l 433 1340 l 636 1340 l 779 1097 l 663 1097 l 535 1221 z "},"Ã":{"ha":1057,"x_min":18,"x_max":1040,"o":"m 454 986 l 606 986 l 1040 0 l 849 0 l 761 200 l 299 200 l 208 0 l 18 0 l 454 986 m 686 368 l 529 725 l 371 368 l 686 368 m 297 1147 q 335 1294 297 1239 q 439 1349 372 1349 q 506 1333 479 1349 q 553 1300 533 1318 q 589 1267 572 1282 q 624 1253 606 1253 q 653 1265 643 1253 q 663 1304 663 1278 l 782 1304 q 747 1153 782 1203 q 642 1103 713 1103 q 577 1117 603 1103 q 531 1151 551 1132 q 494 1184 511 1169 q 457 1199 476 1199 q 427 1186 438 1199 q 417 1147 417 1174 l 297 1147 z "},"Ä":{"ha":1057,"x_min":18,"x_max":1040,"o":"m 454 986 l 606 986 l 1040 0 l 849 0 l 761 200 l 299 200 l 208 0 l 18 0 l 454 986 m 686 368 l 529 725 l 371 368 l 686 368 m 328 1099 l 328 1268 l 497 1268 l 497 1099 l 328 1099 m 571 1099 l 571 1268 l 740 1268 l 740 1099 l 571 1099 z "},"Å":{"ha":1057,"x_min":18,"x_max":1040,"o":"m 454 986 l 606 986 l 1040 0 l 849 0 l 761 200 l 299 200 l 208 0 l 18 0 l 454 986 m 686 368 l 529 725 l 371 368 l 686 368 m 351 1238 q 397 1344 351 1306 q 526 1382 443 1382 l 542 1382 q 675 1344 628 1382 q 722 1238 722 1306 q 676 1134 722 1171 q 542 1097 629 1097 l 526 1097 q 397 1134 443 1097 q 351 1238 351 1171 m 471 1243 q 483 1213 471 1222 q 528 1204 494 1204 l 540 1204 q 590 1213 576 1204 q 603 1243 603 1222 q 590 1267 603 1258 q 540 1275 576 1275 l 528 1275 q 483 1267 496 1275 q 471 1243 471 1258 z "},"Æ":{"ha":1322,"x_min":18,"x_max":1276,"o":"m 575 200 l 299 200 l 210 0 l 18 0 l 460 986 l 1276 986 l 1276 818 l 749 818 l 749 578 l 1151 578 l 1151 410 l 749 410 l 749 168 l 1276 168 l 1276 0 l 575 0 l 575 200 m 575 368 l 575 815 l 375 368 l 575 368 z "},"Ç":{"ha":1025,"x_min":32,"x_max":993,"o":"m 813 646 q 761 726 789 692 q 699 781 733 760 q 622 814 665 803 q 525 825 579 825 q 394 802 451 825 q 297 736 338 779 q 235 631 256 693 q 214 492 214 569 q 235 349 214 411 q 297 246 256 288 q 394 183 338 204 q 525 161 451 161 q 699 204 632 161 q 813 340 765 247 l 993 340 q 932 190 974 256 q 831 78 890 124 q 693 10 771 33 q 522 -14 615 -14 q 320 21 411 -14 q 165 121 229 56 q 67 280 101 186 q 32 492 32 374 q 67 705 32 610 q 165 865 101 800 q 320 965 229 931 q 522 1000 411 1000 q 695 976 617 1000 q 833 906 774 951 q 933 795 893 861 q 993 646 974 729 l 813 646 m 596 0 l 543 -62 l 554 -62 q 680 -100 638 -62 q 722 -197 722 -137 q 678 -301 722 -261 q 547 -340 635 -340 l 444 -340 l 444 -221 l 547 -221 q 590 -214 576 -221 q 603 -192 603 -207 q 590 -172 603 -178 q 551 -165 578 -165 l 444 -165 l 444 -62 l 493 0 l 596 0 z "},"È":{"ha":793,"x_min":46,"x_max":749,"o":"m 46 986 l 749 986 l 749 818 l 221 818 l 221 578 l 624 578 l 624 410 l 221 410 l 221 168 l 749 168 l 749 0 l 46 0 l 46 986 m 201 1340 l 432 1340 l 576 1097 l 458 1097 l 201 1340 z "},"É":{"ha":793,"x_min":46,"x_max":749,"o":"m 46 986 l 749 986 l 749 818 l 221 818 l 221 578 l 624 578 l 624 410 l 221 410 l 221 168 l 749 168 l 749 0 l 46 0 l 46 986 m 325 1097 l 207 1097 l 351 1340 l 582 1340 l 325 1097 z "},"Ê":{"ha":793,"x_min":46,"x_max":749,"o":"m 46 986 l 749 986 l 749 818 l 221 818 l 221 578 l 624 578 l 624 410 l 221 410 l 221 168 l 749 168 l 749 0 l 46 0 l 46 986 m 390 1221 l 263 1097 l 144 1097 l 289 1340 l 492 1340 l 635 1097 l 518 1097 l 390 1221 z "},"Ë":{"ha":793,"x_min":46,"x_max":749,"o":"m 46 986 l 749 986 l 749 818 l 221 818 l 221 578 l 624 578 l 624 410 l 221 410 l 221 168 l 749 168 l 749 0 l 46 0 l 46 986 m 182 1099 l 182 1268 l 351 1268 l 351 1099 l 182 1099 m 425 1099 l 425 1268 l 594 1268 l 594 1099 l 425 1099 z "},"Ì":{"ha":265,"x_min":-56,"x_max":319,"o":"m 46 986 l 221 986 l 221 0 l 46 0 l 46 986 m -56 1340 l 175 1340 l 319 1097 l 201 1097 l -56 1340 z "},"Í":{"ha":265,"x_min":-51,"x_max":324,"o":"m 46 986 l 221 986 l 221 0 l 46 0 l 46 986 m 67 1097 l -51 1097 l 93 1340 l 324 1340 l 67 1097 z "},"Î":{"ha":265,"x_min":-114,"x_max":376,"o":"m 46 986 l 221 986 l 221 0 l 46 0 l 46 986 m 132 1221 l 4 1097 l -114 1097 l 31 1340 l 233 1340 l 376 1097 l 260 1097 l 132 1221 z "},"Ï":{"ha":265,"x_min":-75,"x_max":338,"o":"m 46 986 l 221 986 l 221 0 l 46 0 l 46 986 m -75 1099 l -75 1268 l 94 1268 l 94 1099 l -75 1099 m 168 1099 l 168 1268 l 338 1268 l 338 1099 l 168 1099 z "},"Ð":{"ha":1007,"x_min":32,"x_max":975,"o":"m 103 574 l 103 986 l 508 986 q 701 954 615 986 q 849 860 788 922 q 942 704 910 797 q 975 489 975 611 q 942 273 975 365 q 849 120 910 181 q 701 30 788 60 q 508 0 615 0 l 103 0 l 103 413 l 32 413 l 32 574 l 103 574 m 499 168 q 618 185 564 168 q 712 242 672 203 q 773 342 751 281 q 794 489 794 403 q 773 637 794 575 q 712 740 751 699 q 618 799 672 781 q 499 818 564 818 l 278 818 l 278 574 l 611 574 l 611 413 l 278 413 l 278 168 l 499 168 z "},"Ñ":{"ha":943,"x_min":46,"x_max":899,"o":"m 232 986 l 724 294 l 724 986 l 899 986 l 899 0 l 713 0 l 221 692 l 221 0 l 46 0 l 46 986 l 232 986 m 239 1147 q 276 1294 239 1239 q 381 1349 314 1349 q 448 1333 421 1349 q 494 1300 475 1318 q 531 1267 514 1282 q 565 1253 547 1253 q 594 1265 585 1253 q 604 1304 604 1278 l 724 1304 q 689 1153 724 1203 q 583 1103 654 1103 q 519 1117 544 1103 q 473 1151 493 1132 q 435 1184 453 1169 q 399 1199 418 1199 q 369 1186 379 1199 q 358 1147 358 1174 l 239 1147 z "},"Ò":{"ha":1043,"x_min":32,"x_max":1011,"o":"m 32 486 q 68 709 32 613 q 169 870 104 806 q 324 967 233 935 q 522 1000 414 1000 q 720 967 631 1000 q 874 869 810 933 q 975 708 939 804 q 1011 486 1011 613 q 975 266 1011 360 q 874 110 939 172 q 720 17 810 47 q 522 -14 631 -14 q 324 17 414 -14 q 169 110 233 47 q 68 266 104 172 q 32 486 32 360 m 214 488 q 237 338 214 400 q 301 236 260 275 q 399 179 342 197 q 525 161 456 161 q 648 180 592 161 q 744 238 704 199 q 807 339 785 276 q 829 488 829 401 q 807 638 829 574 q 744 743 785 701 q 648 805 704 785 q 525 825 592 825 q 399 805 456 825 q 301 743 342 785 q 237 638 260 701 q 214 488 214 575 m 353 1340 l 583 1340 l 728 1097 l 610 1097 l 353 1340 z "},"Ó":{"ha":1043,"x_min":32,"x_max":1011,"o":"m 32 486 q 68 709 32 613 q 169 870 104 806 q 324 967 233 935 q 522 1000 414 1000 q 720 967 631 1000 q 874 869 810 933 q 975 708 939 804 q 1011 486 1011 613 q 975 266 1011 360 q 874 110 939 172 q 720 17 810 47 q 522 -14 631 -14 q 324 17 414 -14 q 169 110 233 47 q 68 266 104 172 q 32 486 32 360 m 214 488 q 237 338 214 400 q 301 236 260 275 q 399 179 342 197 q 525 161 456 161 q 648 180 592 161 q 744 238 704 199 q 807 339 785 276 q 829 488 829 401 q 807 638 829 574 q 744 743 785 701 q 648 805 704 785 q 525 825 592 825 q 399 805 456 825 q 301 743 342 785 q 237 638 260 701 q 214 488 214 575 m 476 1097 l 358 1097 l 503 1340 l 733 1340 l 476 1097 z "},"Ô":{"ha":1043,"x_min":32,"x_max":1011,"o":"m 32 486 q 68 709 32 613 q 169 870 104 806 q 324 967 233 935 q 522 1000 414 1000 q 720 967 631 1000 q 874 869 810 933 q 975 708 939 804 q 1011 486 1011 613 q 975 266 1011 360 q 874 110 939 172 q 720 17 810 47 q 522 -14 631 -14 q 324 17 414 -14 q 169 110 233 47 q 68 266 104 172 q 32 486 32 360 m 214 488 q 237 338 214 400 q 301 236 260 275 q 399 179 342 197 q 525 161 456 161 q 648 180 592 161 q 744 238 704 199 q 807 339 785 276 q 829 488 829 401 q 807 638 829 574 q 744 743 785 701 q 648 805 704 785 q 525 825 592 825 q 399 805 456 825 q 301 743 342 785 q 237 638 260 701 q 214 488 214 575 m 542 1221 l 414 1097 l 296 1097 l 440 1340 l 643 1340 l 786 1097 l 669 1097 l 542 1221 z "},"Õ":{"ha":1043,"x_min":32,"x_max":1011,"o":"m 32 486 q 68 709 32 613 q 169 870 104 806 q 324 967 233 935 q 522 1000 414 1000 q 720 967 631 1000 q 874 869 810 933 q 975 708 939 804 q 1011 486 1011 613 q 975 266 1011 360 q 874 110 939 172 q 720 17 810 47 q 522 -14 631 -14 q 324 17 414 -14 q 169 110 233 47 q 68 266 104 172 q 32 486 32 360 m 214 488 q 237 338 214 400 q 301 236 260 275 q 399 179 342 197 q 525 161 456 161 q 648 180 592 161 q 744 238 704 199 q 807 339 785 276 q 829 488 829 401 q 807 638 829 574 q 744 743 785 701 q 648 805 704 785 q 525 825 592 825 q 399 805 456 825 q 301 743 342 785 q 237 638 260 701 q 214 488 214 575 m 304 1147 q 342 1294 304 1239 q 446 1349 379 1349 q 513 1333 486 1349 q 560 1300 540 1318 q 596 1267 579 1282 q 631 1253 613 1253 q 660 1265 650 1253 q 669 1304 669 1278 l 789 1304 q 754 1153 789 1203 q 649 1103 719 1103 q 584 1117 610 1103 q 538 1151 558 1132 q 501 1184 518 1169 q 464 1199 483 1199 q 434 1186 444 1199 q 424 1147 424 1174 l 304 1147 z "},"Ö":{"ha":1043,"x_min":32,"x_max":1011,"o":"m 32 486 q 68 709 32 613 q 169 870 104 806 q 324 967 233 935 q 522 1000 414 1000 q 720 967 631 1000 q 874 869 810 933 q 975 708 939 804 q 1011 486 1011 613 q 975 266 1011 360 q 874 110 939 172 q 720 17 810 47 q 522 -14 631 -14 q 324 17 414 -14 q 169 110 233 47 q 68 266 104 172 q 32 486 32 360 m 214 488 q 237 338 214 400 q 301 236 260 275 q 399 179 342 197 q 525 161 456 161 q 648 180 592 161 q 744 238 704 199 q 807 339 785 276 q 829 488 829 401 q 807 638 829 574 q 744 743 785 701 q 648 805 704 785 q 525 825 592 825 q 399 805 456 825 q 301 743 342 785 q 237 638 260 701 q 214 488 214 575 m 333 1099 l 333 1268 l 503 1268 l 503 1099 l 333 1099 m 576 1099 l 576 1268 l 746 1268 l 746 1099 l 576 1099 z "},"×":{"ha":621,"x_min":32,"x_max":588,"o":"m 310 601 l 474 764 l 588 650 l 424 486 l 588 322 l 474 208 l 310 372 l 146 208 l 32 322 l 196 486 l 32 650 l 146 764 l 310 601 z "},"Ø":{"ha":1043,"x_min":32,"x_max":1011,"o":"m 167 113 q 67 267 103 175 q 32 486 32 360 q 68 709 32 613 q 169 870 104 806 q 324 967 233 935 q 522 1000 414 1000 q 639 990 583 1000 q 743 956 694 979 l 764 986 l 954 986 l 875 871 q 976 710 940 806 q 1011 486 1011 614 q 975 266 1011 360 q 874 110 939 172 q 720 17 810 47 q 522 -14 631 -14 q 404 -3 460 -14 q 300 29 349 7 l 281 0 l 90 0 l 167 113 m 214 488 q 229 361 214 415 q 274 268 244 307 l 639 804 q 585 820 613 815 q 525 825 557 825 q 399 805 456 825 q 301 743 342 785 q 237 638 260 701 q 214 488 214 575 m 403 181 q 460 165 431 169 q 525 161 490 161 q 648 180 592 161 q 744 238 704 199 q 807 339 785 276 q 829 488 829 401 q 814 617 829 561 q 768 714 799 674 l 403 181 z "},"Ù":{"ha":992,"x_min":46,"x_max":947,"o":"m 947 986 l 947 435 q 918 235 947 319 q 831 96 889 151 q 690 13 774 40 q 496 -14 607 -14 q 302 13 386 -14 q 161 96 218 40 q 75 235 104 151 q 46 435 46 319 l 46 986 l 221 986 l 221 444 q 240 307 221 361 q 297 220 260 253 q 385 174 333 188 q 499 161 436 161 q 703 227 633 161 q 772 444 772 293 l 772 986 l 947 986 m 304 1340 l 535 1340 l 679 1097 l 561 1097 l 304 1340 z "},"Ú":{"ha":992,"x_min":46,"x_max":947,"o":"m 947 986 l 947 435 q 918 235 947 319 q 831 96 889 151 q 690 13 774 40 q 496 -14 607 -14 q 302 13 386 -14 q 161 96 218 40 q 75 235 104 151 q 46 435 46 319 l 46 986 l 221 986 l 221 444 q 240 307 221 361 q 297 220 260 253 q 385 174 333 188 q 499 161 436 161 q 703 227 633 161 q 772 444 772 293 l 772 986 l 947 986 m 428 1097 l 310 1097 l 454 1340 l 685 1340 l 428 1097 z "},"Û":{"ha":992,"x_min":46,"x_max":947,"o":"m 947 986 l 947 435 q 918 235 947 319 q 831 96 889 151 q 690 13 774 40 q 496 -14 607 -14 q 302 13 386 -14 q 161 96 218 40 q 75 235 104 151 q 46 435 46 319 l 46 986 l 221 986 l 221 444 q 240 307 221 361 q 297 220 260 253 q 385 174 333 188 q 499 161 436 161 q 703 227 633 161 q 772 444 772 293 l 772 986 l 947 986 m 493 1221 l 365 1097 l 247 1097 l 392 1340 l 594 1340 l 738 1097 l 621 1097 l 493 1221 z "},"Ü":{"ha":992,"x_min":46,"x_max":947,"o":"m 947 986 l 947 435 q 918 235 947 319 q 831 96 889 151 q 690 13 774 40 q 496 -14 607 -14 q 302 13 386 -14 q 161 96 218 40 q 75 235 104 151 q 46 435 46 319 l 46 986 l 221 986 l 221 444 q 240 307 221 361 q 297 220 260 253 q 385 174 333 188 q 499 161 436 161 q 703 227 633 161 q 772 444 772 293 l 772 986 l 947 986 m 285 1099 l 285 1268 l 454 1268 l 454 1099 l 285 1099 m 528 1099 l 528 1268 l 697 1268 l 697 1099 l 528 1099 z "},"Ý":{"ha":929,"x_min":18,"x_max":911,"o":"m 378 421 l 18 986 l 225 986 l 465 608 l 704 986 l 911 986 l 551 421 l 551 0 l 378 0 l 378 421 m 413 1097 l 294 1097 l 439 1340 l 669 1340 l 413 1097 z "},"Þ":{"ha":811,"x_min":32,"x_max":779,"o":"m 32 986 l 207 986 l 207 847 l 360 847 q 676 756 572 847 q 779 489 779 665 q 676 226 779 313 q 360 139 572 139 l 207 139 l 207 0 l 32 0 l 32 986 m 350 307 q 462 317 415 307 q 539 349 508 326 q 583 407 569 372 q 597 492 597 442 q 583 576 597 540 q 539 635 569 611 q 462 669 508 658 q 350 679 415 679 l 207 679 l 207 307 l 350 307 z "},"ß":{"ha":868,"x_min":32,"x_max":836,"o":"m 32 618 q 127 899 32 800 q 399 999 222 999 q 528 981 469 999 q 630 933 588 964 q 695 860 672 901 q 718 769 718 818 q 701 684 718 717 q 657 631 683 651 q 600 597 631 610 q 543 576 569 585 q 499 556 517 567 q 482 528 482 546 q 508 497 482 508 q 573 474 533 485 q 659 450 613 464 q 744 411 706 436 q 810 347 783 386 q 836 243 836 307 q 753 59 836 118 q 494 0 671 0 l 263 0 l 263 175 l 482 175 q 567 178 533 175 q 619 190 600 182 q 647 213 639 199 q 654 250 654 228 q 628 298 654 281 q 563 328 603 315 q 477 352 524 340 q 392 383 431 364 q 326 433 353 403 q 300 513 300 463 q 317 576 300 550 q 361 620 335 601 q 418 652 388 639 q 475 678 449 665 q 519 706 501 692 q 538 742 538 721 q 502 800 538 776 q 400 824 467 824 q 314 808 350 824 q 253 761 278 793 q 218 681 229 729 q 207 569 207 633 l 207 0 l 32 0 l 32 618 z "},"à":{"ha":756,"x_min":32,"x_max":711,"o":"m 207 240 q 244 177 207 200 q 342 154 281 154 q 422 165 385 154 q 485 194 458 175 q 528 240 513 213 q 543 300 543 267 l 543 335 l 353 335 q 241 313 275 335 q 207 240 207 292 m 32 222 q 110 394 32 329 q 326 460 188 460 l 543 460 l 543 561 l 126 561 l 126 722 l 525 722 q 665 678 618 722 q 711 535 711 633 l 711 0 l 557 0 l 543 75 q 444 9 503 32 q 315 -14 385 -14 q 196 2 249 -14 q 107 48 143 18 q 51 122 71 78 q 32 222 32 167 m 190 1076 l 421 1076 l 565 833 l 447 833 l 190 1076 z "},"á":{"ha":756,"x_min":32,"x_max":711,"o":"m 207 240 q 244 177 207 200 q 342 154 281 154 q 422 165 385 154 q 485 194 458 175 q 528 240 513 213 q 543 300 543 267 l 543 335 l 353 335 q 241 313 275 335 q 207 240 207 292 m 32 222 q 110 394 32 329 q 326 460 188 460 l 543 460 l 543 561 l 126 561 l 126 722 l 525 722 q 665 678 618 722 q 711 535 711 633 l 711 0 l 557 0 l 543 75 q 444 9 503 32 q 315 -14 385 -14 q 196 2 249 -14 q 107 48 143 18 q 51 122 71 78 q 32 222 32 167 m 314 833 l 196 833 l 340 1076 l 571 1076 l 314 833 z "},"â":{"ha":756,"x_min":32,"x_max":711,"o":"m 207 240 q 244 177 207 200 q 342 154 281 154 q 422 165 385 154 q 485 194 458 175 q 528 240 513 213 q 543 300 543 267 l 543 335 l 353 335 q 241 313 275 335 q 207 240 207 292 m 32 222 q 110 394 32 329 q 326 460 188 460 l 543 460 l 543 561 l 126 561 l 126 722 l 525 722 q 665 678 618 722 q 711 535 711 633 l 711 0 l 557 0 l 543 75 q 444 9 503 32 q 315 -14 385 -14 q 196 2 249 -14 q 107 48 143 18 q 51 122 71 78 q 32 222 32 167 m 379 957 l 251 833 l 133 833 l 278 1076 l 481 1076 l 624 833 l 507 833 l 379 957 z "},"ã":{"ha":756,"x_min":32,"x_max":711,"o":"m 207 240 q 244 177 207 200 q 342 154 281 154 q 422 165 385 154 q 485 194 458 175 q 528 240 513 213 q 543 300 543 267 l 543 335 l 353 335 q 241 313 275 335 q 207 240 207 292 m 32 222 q 110 394 32 329 q 326 460 188 460 l 543 460 l 543 561 l 126 561 l 126 722 l 525 722 q 665 678 618 722 q 711 535 711 633 l 711 0 l 557 0 l 543 75 q 444 9 503 32 q 315 -14 385 -14 q 196 2 249 -14 q 107 48 143 18 q 51 122 71 78 q 32 222 32 167 m 142 883 q 179 1030 142 975 q 283 1085 217 1085 q 351 1069 324 1085 q 397 1036 378 1054 q 433 1003 417 1018 q 468 989 450 989 q 497 1001 488 989 q 507 1040 507 1014 l 626 1040 q 592 889 626 939 q 486 839 557 839 q 422 853 447 839 q 376 887 396 868 q 338 920 356 906 q 301 935 321 935 q 272 922 282 935 q 261 883 261 910 l 142 883 z "},"ä":{"ha":756,"x_min":32,"x_max":711,"o":"m 207 240 q 244 177 207 200 q 342 154 281 154 q 422 165 385 154 q 485 194 458 175 q 528 240 513 213 q 543 300 543 267 l 543 335 l 353 335 q 241 313 275 335 q 207 240 207 292 m 32 222 q 110 394 32 329 q 326 460 188 460 l 543 460 l 543 561 l 126 561 l 126 722 l 525 722 q 665 678 618 722 q 711 535 711 633 l 711 0 l 557 0 l 543 75 q 444 9 503 32 q 315 -14 385 -14 q 196 2 249 -14 q 107 48 143 18 q 51 122 71 78 q 32 222 32 167 m 171 835 l 171 1004 l 340 1004 l 340 835 l 171 835 m 414 835 l 414 1004 l 583 1004 l 583 835 l 414 835 z "},"å":{"ha":756,"x_min":32,"x_max":711,"o":"m 207 240 q 244 177 207 200 q 342 154 281 154 q 422 165 385 154 q 485 194 458 175 q 528 240 513 213 q 543 300 543 267 l 543 335 l 353 335 q 241 313 275 335 q 207 240 207 292 m 32 222 q 110 394 32 329 q 326 460 188 460 l 543 460 l 543 561 l 126 561 l 126 722 l 525 722 q 665 678 618 722 q 711 535 711 633 l 711 0 l 557 0 l 543 75 q 444 9 503 32 q 315 -14 385 -14 q 196 2 249 -14 q 107 48 143 18 q 51 122 71 78 q 32 222 32 167 m 196 974 q 242 1080 196 1042 q 371 1118 288 1118 l 386 1118 q 519 1080 472 1118 q 567 974 567 1042 q 520 870 567 907 q 386 833 474 833 l 371 833 q 242 870 288 833 q 196 974 196 907 m 315 979 q 327 949 315 958 q 372 940 339 940 l 385 940 q 434 949 421 940 q 447 979 447 958 q 434 1003 447 994 q 385 1011 421 1011 l 372 1011 q 328 1003 340 1011 q 315 979 315 994 z "},"æ":{"ha":1278,"x_min":32,"x_max":1247,"o":"m 32 222 q 110 394 32 329 q 326 460 188 460 l 543 460 l 543 561 l 126 561 l 126 722 l 525 722 q 631 697 594 722 q 667 622 667 672 q 758 707 700 678 q 900 736 817 736 q 1043 713 979 736 q 1152 647 1107 690 q 1222 542 1197 603 q 1246 407 1246 482 l 1246 333 l 721 333 l 721 321 q 721 314 721 317 q 734 246 721 276 q 772 195 747 215 q 828 165 796 175 q 900 154 861 154 q 1012 183 969 154 q 1072 268 1054 211 l 1247 268 q 1214 154 1242 206 q 1140 65 1186 103 q 1032 7 1093 28 q 900 -14 971 -14 q 797 -1 844 -14 q 711 38 750 11 l 711 0 l 546 0 l 543 71 q 444 8 503 31 q 315 -14 385 -14 q 196 2 249 -14 q 107 48 143 18 q 51 122 71 78 q 32 222 32 167 m 207 240 q 244 177 207 200 q 342 154 281 154 q 423 165 386 154 q 487 194 460 175 q 528 242 514 214 q 543 304 543 269 l 543 335 l 353 335 q 288 330 315 335 q 242 313 260 325 q 215 283 224 301 q 207 240 207 265 m 1071 458 q 1010 540 1053 513 q 900 568 967 568 q 844 562 869 568 q 797 542 818 556 q 760 508 775 529 q 735 458 744 488 l 1071 458 z "},"ç":{"ha":767,"x_min":32,"x_max":735,"o":"m 735 268 q 703 154 731 206 q 628 65 675 103 q 521 7 582 28 q 389 -14 460 -14 q 241 11 307 -14 q 128 84 175 36 q 57 201 82 132 q 32 360 32 271 q 57 519 32 449 q 128 637 82 589 q 241 710 175 685 q 389 736 307 736 q 519 716 458 736 q 626 658 579 696 q 701 569 672 621 q 735 453 731 517 l 561 453 q 498 540 542 513 q 389 568 454 568 q 312 556 346 568 q 255 517 278 543 q 219 451 232 490 q 207 360 207 413 q 219 269 207 307 q 255 205 232 231 q 312 167 278 179 q 389 154 346 154 q 501 183 458 154 q 561 268 543 211 l 735 268 m 460 0 l 407 -62 l 418 -62 q 544 -100 501 -62 q 586 -197 586 -137 q 542 -301 586 -261 q 411 -340 499 -340 l 308 -340 l 308 -221 l 411 -221 q 453 -214 440 -221 q 467 -192 467 -207 q 454 -172 467 -178 q 415 -165 442 -165 l 308 -165 l 308 -62 l 357 0 l 460 0 z "},"è":{"ha":767,"x_min":32,"x_max":735,"o":"m 735 268 q 703 154 731 206 q 628 65 675 103 q 521 7 582 28 q 389 -14 460 -14 q 241 11 307 -14 q 128 84 175 36 q 57 201 82 132 q 32 360 32 271 q 57 519 32 449 q 128 637 82 589 q 241 710 175 685 q 389 736 307 736 q 532 713 468 736 q 641 647 596 690 q 710 542 686 603 q 735 407 735 482 l 735 333 l 210 333 l 208 321 q 222 246 208 278 q 260 194 236 214 q 317 164 285 174 q 389 154 350 154 q 501 183 458 154 q 561 268 543 211 l 735 268 m 560 458 q 499 540 542 513 q 389 568 456 568 q 332 562 358 568 q 285 542 306 556 q 249 508 264 529 q 224 458 233 488 l 560 458 m 206 1076 l 436 1076 l 581 833 l 463 833 l 206 1076 z "},"é":{"ha":767,"x_min":32,"x_max":735,"o":"m 735 268 q 703 154 731 206 q 628 65 675 103 q 521 7 582 28 q 389 -14 460 -14 q 241 11 307 -14 q 128 84 175 36 q 57 201 82 132 q 32 360 32 271 q 57 519 32 449 q 128 637 82 589 q 241 710 175 685 q 389 736 307 736 q 532 713 468 736 q 641 647 596 690 q 710 542 686 603 q 735 407 735 482 l 735 333 l 210 333 l 208 321 q 222 246 208 278 q 260 194 236 214 q 317 164 285 174 q 389 154 350 154 q 501 183 458 154 q 561 268 543 211 l 735 268 m 560 458 q 499 540 542 513 q 389 568 456 568 q 332 562 358 568 q 285 542 306 556 q 249 508 264 529 q 224 458 233 488 l 560 458 m 328 833 l 210 833 l 354 1076 l 585 1076 l 328 833 z "},"ê":{"ha":767,"x_min":32,"x_max":735,"o":"m 735 268 q 703 154 731 206 q 628 65 675 103 q 521 7 582 28 q 389 -14 460 -14 q 241 11 307 -14 q 128 84 175 36 q 57 201 82 132 q 32 360 32 271 q 57 519 32 449 q 128 637 82 589 q 241 710 175 685 q 389 736 307 736 q 532 713 468 736 q 641 647 596 690 q 710 542 686 603 q 735 407 735 482 l 735 333 l 210 333 l 208 321 q 222 246 208 278 q 260 194 236 214 q 317 164 285 174 q 389 154 350 154 q 501 183 458 154 q 561 268 543 211 l 735 268 m 560 458 q 499 540 542 513 q 389 568 456 568 q 332 562 358 568 q 285 542 306 556 q 249 508 264 529 q 224 458 233 488 l 560 458 m 393 957 l 265 833 l 147 833 l 292 1076 l 494 1076 l 638 833 l 521 833 l 393 957 z "},"ë":{"ha":767,"x_min":32,"x_max":735,"o":"m 735 268 q 703 154 731 206 q 628 65 675 103 q 521 7 582 28 q 389 -14 460 -14 q 241 11 307 -14 q 128 84 175 36 q 57 201 82 132 q 32 360 32 271 q 57 519 32 449 q 128 637 82 589 q 241 710 175 685 q 389 736 307 736 q 532 713 468 736 q 641 647 596 690 q 710 542 686 603 q 735 407 735 482 l 735 333 l 210 333 l 208 321 q 222 246 208 278 q 260 194 236 214 q 317 164 285 174 q 389 154 350 154 q 501 183 458 154 q 561 268 543 211 l 735 268 m 560 458 q 499 540 542 513 q 389 568 456 568 q 332 562 358 568 q 285 542 306 556 q 249 508 264 529 q 224 458 233 488 l 560 458 m 186 835 l 186 1004 l 356 1004 l 356 835 l 186 835 m 429 835 l 429 1004 l 599 1004 l 599 835 l 429 835 z "},"ì":{"ha":269,"x_min":-42,"x_max":333,"o":"m 225 847 l 225 0 l 46 0 l 46 847 l 225 847 m -42 1160 l 189 1160 l 333 917 l 215 917 l -42 1160 z "},"í":{"ha":271,"x_min":-36,"x_max":339,"o":"m 225 847 l 225 0 l 46 0 l 46 847 l 225 847 m 82 917 l -36 917 l 108 1160 l 339 1160 l 82 917 z "},"î":{"ha":269,"x_min":-99,"x_max":392,"o":"m 225 847 l 225 0 l 46 0 l 46 847 l 225 847 m 147 1040 l 19 917 l -99 917 l 46 1160 l 249 1160 l 392 917 l 275 917 l 147 1040 z "},"ï":{"ha":271,"x_min":-61,"x_max":351,"o":"m 225 847 l 225 0 l 46 0 l 46 847 l 225 847 m -61 918 l -61 1088 l 108 1088 l 108 918 l -61 918 m 182 918 l 182 1088 l 351 1088 l 351 918 l 182 918 z "},"ð":{"ha":888,"x_min":32,"x_max":856,"o":"m 856 986 l 724 857 q 793 702 769 793 q 817 493 817 611 q 711 117 817 247 q 408 -14 606 -14 q 252 10 322 -14 q 133 77 182 33 q 58 183 85 121 q 32 322 32 246 q 58 467 32 403 q 133 576 85 531 q 252 644 182 621 q 410 668 322 668 q 479 660 446 668 q 542 640 513 653 q 594 610 571 628 q 635 572 618 592 q 619 662 629 622 q 593 731 610 701 l 556 694 l 342 694 l 463 813 q 438 822 451 819 q 406 825 424 825 q 347 817 375 825 q 294 792 318 808 q 250 751 269 775 q 215 694 231 726 l 33 694 q 170 921 72 842 q 415 1000 268 1000 q 520 989 472 1000 q 608 954 568 978 l 642 986 l 856 986 m 608 338 q 594 414 608 381 q 556 471 581 447 q 493 506 531 494 q 410 518 456 518 q 263 471 313 518 q 214 338 214 424 q 264 206 214 250 q 410 161 314 161 q 556 208 503 161 q 608 338 608 256 z "},"ñ":{"ha":801,"x_min":46,"x_max":756,"o":"m 46 0 l 46 722 l 214 722 l 214 635 q 331 710 264 683 q 478 736 399 736 q 685 668 615 736 q 756 465 756 600 l 756 -1 l 589 -1 l 589 367 q 582 463 589 424 q 559 525 575 501 q 517 558 543 549 q 451 568 490 568 q 367 556 410 568 q 291 519 325 544 q 235 453 257 493 q 214 357 214 414 l 214 0 l 46 0 m 156 883 q 193 1030 156 975 q 297 1085 231 1085 q 365 1069 338 1085 q 411 1036 392 1054 q 447 1003 431 1018 q 482 989 464 989 q 511 1001 501 989 q 521 1040 521 1014 l 640 1040 q 606 889 640 939 q 500 839 571 839 q 435 853 461 839 q 390 887 410 868 q 352 920 369 906 q 315 935 335 935 q 285 922 296 935 q 275 883 275 910 l 156 883 z "},"ò":{"ha":788,"x_min":32,"x_max":756,"o":"m 32 356 q 59 522 32 451 q 133 641 86 593 q 247 713 181 689 q 394 736 314 736 q 541 713 475 736 q 655 641 607 689 q 729 522 703 593 q 756 356 756 451 q 729 192 756 261 q 655 76 703 122 q 541 8 607 31 q 394 -14 475 -14 q 247 8 314 -14 q 133 76 181 31 q 59 192 86 122 q 32 356 32 261 m 207 357 q 221 263 207 301 q 260 200 235 224 q 320 165 285 176 q 397 154 356 154 q 472 165 438 154 q 530 201 506 176 q 568 263 554 225 q 582 357 582 301 q 568 453 582 414 q 530 519 554 493 q 472 556 506 544 q 397 568 438 568 q 320 556 356 568 q 260 519 285 544 q 221 454 235 494 q 207 357 207 414 m 199 1076 l 429 1076 l 574 833 l 456 833 l 199 1076 z "},"ó":{"ha":788,"x_min":32,"x_max":756,"o":"m 32 356 q 59 522 32 451 q 133 641 86 593 q 247 713 181 689 q 394 736 314 736 q 541 713 475 736 q 655 641 607 689 q 729 522 703 593 q 756 356 756 451 q 729 192 756 261 q 655 76 703 122 q 541 8 607 31 q 394 -14 475 -14 q 247 8 314 -14 q 133 76 181 31 q 59 192 86 122 q 32 356 32 261 m 207 357 q 221 263 207 301 q 260 200 235 224 q 320 165 285 176 q 397 154 356 154 q 472 165 438 154 q 530 201 506 176 q 568 263 554 225 q 582 357 582 301 q 568 453 582 414 q 530 519 554 493 q 472 556 506 544 q 397 568 438 568 q 320 556 356 568 q 260 519 285 544 q 221 454 235 494 q 207 357 207 414 m 321 833 l 203 833 l 347 1076 l 578 1076 l 321 833 z "},"ô":{"ha":788,"x_min":32,"x_max":756,"o":"m 32 356 q 59 522 32 451 q 133 641 86 593 q 247 713 181 689 q 394 736 314 736 q 541 713 475 736 q 655 641 607 689 q 729 522 703 593 q 756 356 756 451 q 729 192 756 261 q 655 76 703 122 q 541 8 607 31 q 394 -14 475 -14 q 247 8 314 -14 q 133 76 181 31 q 59 192 86 122 q 32 356 32 261 m 207 357 q 221 263 207 301 q 260 200 235 224 q 320 165 285 176 q 397 154 356 154 q 472 165 438 154 q 530 201 506 176 q 568 263 554 225 q 582 357 582 301 q 568 453 582 414 q 530 519 554 493 q 472 556 506 544 q 397 568 438 568 q 320 556 356 568 q 260 519 285 544 q 221 454 235 494 q 207 357 207 414 m 386 957 l 258 833 l 140 833 l 285 1076 l 488 1076 l 631 833 l 514 833 l 386 957 z "},"õ":{"ha":788,"x_min":32,"x_max":756,"o":"m 32 356 q 59 522 32 451 q 133 641 86 593 q 247 713 181 689 q 394 736 314 736 q 541 713 475 736 q 655 641 607 689 q 729 522 703 593 q 756 356 756 451 q 729 192 756 261 q 655 76 703 122 q 541 8 607 31 q 394 -14 475 -14 q 247 8 314 -14 q 133 76 181 31 q 59 192 86 122 q 32 356 32 261 m 207 357 q 221 263 207 301 q 260 200 235 224 q 320 165 285 176 q 397 154 356 154 q 472 165 438 154 q 530 201 506 176 q 568 263 554 225 q 582 357 582 301 q 568 453 582 414 q 530 519 554 493 q 472 556 506 544 q 397 568 438 568 q 320 556 356 568 q 260 519 285 544 q 221 454 235 494 q 207 357 207 414 m 149 883 q 186 1030 149 975 q 290 1085 224 1085 q 358 1069 331 1085 q 404 1036 385 1054 q 440 1003 424 1018 q 475 989 457 989 q 504 1001 494 989 q 514 1040 514 1014 l 633 1040 q 599 889 633 939 q 493 839 564 839 q 428 853 454 839 q 383 887 403 868 q 345 920 363 906 q 308 935 328 935 q 278 922 289 935 q 268 883 268 910 l 149 883 z "},"ö":{"ha":788,"x_min":32,"x_max":756,"o":"m 32 356 q 59 522 32 451 q 133 641 86 593 q 247 713 181 689 q 394 736 314 736 q 541 713 475 736 q 655 641 607 689 q 729 522 703 593 q 756 356 756 451 q 729 192 756 261 q 655 76 703 122 q 541 8 607 31 q 394 -14 475 -14 q 247 8 314 -14 q 133 76 181 31 q 59 192 86 122 q 32 356 32 261 m 207 357 q 221 263 207 301 q 260 200 235 224 q 320 165 285 176 q 397 154 356 154 q 472 165 438 154 q 530 201 506 176 q 568 263 554 225 q 582 357 582 301 q 568 453 582 414 q 530 519 554 493 q 472 556 506 544 q 397 568 438 568 q 320 556 356 568 q 260 519 285 544 q 221 454 235 494 q 207 357 207 414 m 178 835 l 178 1004 l 347 1004 l 347 835 l 178 835 m 421 835 l 421 1004 l 590 1004 l 590 835 l 421 835 z "},"÷":{"ha":689,"x_min":32,"x_max":657,"o":"m 657 574 l 657 413 l 32 413 l 32 574 l 657 574 z "},"ø":{"ha":788,"x_min":32,"x_max":756,"o":"m 665 631 q 732 516 708 583 q 756 357 756 449 q 729 192 756 263 q 655 77 703 122 q 541 9 607 32 q 394 -14 475 -14 q 314 -8 351 -14 q 243 13 276 -1 l 235 0 l 60 0 l 121 90 q 55 202 78 136 q 32 357 32 268 q 59 524 32 453 q 133 642 86 594 q 247 713 181 689 q 394 736 314 736 q 472 730 435 736 q 543 710 510 724 l 553 722 l 728 722 l 665 631 m 207 358 q 212 297 207 324 q 228 247 217 269 l 442 560 q 421 567 432 565 q 397 568 410 568 q 320 557 356 568 q 260 520 285 546 q 221 455 235 494 q 207 358 207 415 m 346 164 q 370 156 357 158 q 397 154 383 154 q 472 165 438 154 q 530 201 506 176 q 568 264 554 225 q 582 358 582 303 q 576 425 582 396 q 558 476 569 454 l 346 164 z "},"ù":{"ha":801,"x_min":46,"x_max":756,"o":"m 756 721 l 756 -1 l 589 -1 l 589 86 q 471 11 539 38 q 324 -15 403 -15 q 117 53 188 -15 q 46 257 46 122 l 46 722 l 214 722 l 214 354 q 221 258 214 297 q 244 196 228 219 q 285 163 260 172 q 351 153 311 153 q 434 165 392 153 q 511 202 476 176 q 567 268 546 228 q 589 364 589 308 l 589 721 l 756 721 m 242 1076 l 472 1076 l 617 833 l 499 833 l 242 1076 z "},"ú":{"ha":801,"x_min":46,"x_max":756,"o":"m 756 721 l 756 -1 l 589 -1 l 589 86 q 471 11 539 38 q 324 -15 403 -15 q 117 53 188 -15 q 46 257 46 122 l 46 722 l 214 722 l 214 354 q 221 258 214 297 q 244 196 228 219 q 285 163 260 172 q 351 153 311 153 q 434 165 392 153 q 511 202 476 176 q 567 268 546 228 q 589 364 589 308 l 589 721 l 756 721 m 364 833 l 246 833 l 390 1076 l 621 1076 l 364 833 z "},"û":{"ha":801,"x_min":46,"x_max":756,"o":"m 756 721 l 756 -1 l 589 -1 l 589 86 q 471 11 539 38 q 324 -15 403 -15 q 117 53 188 -15 q 46 257 46 122 l 46 722 l 214 722 l 214 354 q 221 258 214 297 q 244 196 228 219 q 285 163 260 172 q 351 153 311 153 q 434 165 392 153 q 511 202 476 176 q 567 268 546 228 q 589 364 589 308 l 589 721 l 756 721 m 429 957 l 301 833 l 183 833 l 328 1076 l 531 1076 l 674 833 l 557 833 l 429 957 z "},"ü":{"ha":801,"x_min":46,"x_max":756,"o":"m 756 721 l 756 -1 l 589 -1 l 589 86 q 471 11 539 38 q 324 -15 403 -15 q 117 53 188 -15 q 46 257 46 122 l 46 722 l 214 722 l 214 354 q 221 258 214 297 q 244 196 228 219 q 285 163 260 172 q 351 153 311 153 q 434 165 392 153 q 511 202 476 176 q 567 268 546 228 q 589 364 589 308 l 589 721 l 756 721 m 221 835 l 221 1004 l 390 1004 l 390 835 l 221 835 m 464 835 l 464 1004 l 633 1004 l 633 835 l 464 835 z "},"ý":{"ha":801,"x_min":46,"x_max":756,"o":"m 756 -160 q 709 -303 756 -258 q 571 -347 663 -347 l 124 -347 l 124 -186 l 589 -186 l 589 78 q 472 8 538 32 q 329 -15 406 -15 q 117 53 189 -15 q 46 257 46 122 l 46 722 l 214 722 l 214 354 q 221 258 214 297 q 244 196 228 219 q 285 163 260 172 q 351 153 311 153 q 434 165 392 153 q 511 202 476 176 q 567 268 546 228 q 589 364 589 308 l 589 722 l 756 722 l 756 -160 m 333 833 l 215 833 l 360 1076 l 590 1076 l 333 833 z "},"þ":{"ha":775,"x_min":32,"x_max":743,"o":"m 32 -347 l 32 986 l 200 986 l 200 657 q 295 717 240 697 q 414 736 350 736 q 548 713 488 736 q 651 641 608 689 q 719 522 694 593 q 743 356 743 451 q 719 192 743 261 q 651 76 694 122 q 548 8 608 31 q 414 -14 488 -14 q 295 4 350 -14 q 200 61 240 22 l 200 -347 l 32 -347 m 200 357 q 213 263 200 301 q 251 200 226 224 q 308 165 275 176 q 383 154 342 154 q 458 165 425 154 q 517 200 492 176 q 555 263 542 224 q 568 357 568 301 q 555 453 568 414 q 517 519 542 493 q 458 556 492 544 q 383 568 425 568 q 308 556 342 568 q 251 519 275 544 q 213 453 226 493 q 200 357 200 414 z "},"ÿ":{"ha":801,"x_min":46,"x_max":756,"o":"m 756 -160 q 709 -303 756 -258 q 571 -347 663 -347 l 124 -347 l 124 -186 l 589 -186 l 589 78 q 472 8 538 32 q 329 -15 406 -15 q 117 53 189 -15 q 46 257 46 122 l 46 722 l 214 722 l 214 354 q 221 258 214 297 q 244 196 228 219 q 285 163 260 172 q 351 153 311 153 q 434 165 392 153 q 511 202 476 176 q 567 268 546 228 q 589 364 589 308 l 589 722 l 756 722 l 756 -160 m 190 835 l 190 1004 l 360 1004 l 360 835 l 190 835 m 433 835 l 433 1004 l 603 1004 l 603 835 l 433 835 z "},"Đ":{"ha":1007,"x_min":32,"x_max":975,"o":"m 103 574 l 103 986 l 508 986 q 701 954 615 986 q 849 860 788 922 q 942 704 910 797 q 975 489 975 611 q 942 273 975 365 q 849 120 910 181 q 701 30 788 60 q 508 0 615 0 l 103 0 l 103 413 l 32 413 l 32 574 l 103 574 m 499 168 q 618 185 564 168 q 712 242 672 203 q 773 342 751 281 q 794 489 794 403 q 773 637 794 575 q 712 740 751 699 q 618 799 672 781 q 499 818 564 818 l 278 818 l 278 574 l 611 574 l 611 413 l 278 413 l 278 168 l 499 168 z "},"đ":{"ha":844,"x_min":32,"x_max":813,"o":"m 575 933 l 575 986 l 743 986 l 743 933 l 813 933 l 813 783 l 743 783 l 743 0 l 575 0 l 575 61 q 480 4 535 22 q 361 -14 425 -14 q 228 8 289 -14 q 124 76 167 31 q 56 192 81 122 q 32 356 32 261 q 56 522 32 451 q 124 641 81 593 q 228 713 167 689 q 361 736 289 736 q 480 717 425 736 q 575 657 535 697 l 575 783 l 343 783 l 343 933 l 575 933 m 207 357 q 220 263 207 301 q 258 200 233 224 q 317 165 283 176 q 392 154 351 154 q 467 165 433 154 q 524 200 500 176 q 562 263 549 224 q 575 357 575 301 q 562 453 575 414 q 524 519 549 493 q 467 556 500 544 q 392 568 433 568 q 317 556 351 568 q 258 519 283 544 q 220 453 233 493 q 207 357 207 414 z "},"ı":{"ha":271,"x_min":46,"x_max":225,"o":"m 225 847 l 225 0 l 46 0 l 46 847 l 225 847 z "},"Ł":{"ha":1004,"x_min":32,"x_max":986,"o":"m 700 715 l 453 475 l 453 168 l 986 168 l 986 0 l 278 0 l 278 303 l 247 272 l 32 272 l 278 513 l 278 986 l 453 986 l 453 683 l 485 715 l 700 715 z "},"ł":{"ha":731,"x_min":32,"x_max":700,"o":"m 700 715 l 450 472 l 450 0 l 282 0 l 282 307 l 247 272 l 32 272 l 282 517 l 282 986 l 450 986 l 450 681 l 485 715 l 700 715 z "},"Œ":{"ha":1408,"x_min":32,"x_max":1363,"o":"m 32 489 q 65 704 32 611 q 159 860 99 797 q 306 954 219 922 q 499 986 393 986 l 1363 986 l 1363 818 l 835 818 l 835 578 l 1238 578 l 1238 410 l 835 410 l 835 168 l 1363 168 l 1363 0 l 499 0 q 306 30 393 0 q 159 120 219 60 q 65 273 99 181 q 32 489 32 365 m 214 489 q 235 342 214 403 q 297 242 257 281 q 390 185 336 203 q 510 168 444 168 l 661 168 l 661 818 l 510 818 q 390 799 444 818 q 297 740 336 781 q 235 637 257 699 q 214 489 214 575 z "},"œ":{"ha":1314,"x_min":32,"x_max":1282,"o":"m 32 356 q 59 522 32 451 q 133 641 86 593 q 247 713 181 689 q 394 736 314 736 q 549 708 481 736 q 667 624 618 679 q 781 707 714 678 q 936 736 849 736 q 1078 713 1014 736 q 1187 647 1142 690 q 1257 542 1232 603 q 1282 407 1282 482 l 1282 333 l 756 333 l 756 324 q 772 249 758 281 q 810 196 786 217 q 865 165 833 175 q 935 154 896 154 q 1047 183 1004 154 q 1107 268 1090 211 l 1282 268 q 1249 154 1278 206 q 1175 65 1221 103 q 1068 7 1129 28 q 936 -14 1007 -14 q 783 15 850 -14 q 669 96 715 43 q 551 14 621 42 q 394 -14 482 -14 q 247 8 314 -14 q 133 76 181 31 q 59 192 86 122 q 32 356 32 261 m 211 358 q 225 265 211 303 q 263 204 239 228 q 322 170 288 181 q 396 160 356 160 q 468 170 435 160 q 526 204 501 181 q 563 266 550 228 q 576 358 576 304 q 563 451 576 413 q 526 515 550 490 q 468 552 501 540 q 396 564 435 564 q 322 552 356 564 q 263 515 288 540 q 225 452 239 490 q 211 358 211 414 m 1107 458 q 1045 540 1089 513 q 935 568 1001 568 q 879 562 906 568 q 832 542 853 556 q 796 508 811 529 q 771 458 781 488 l 1107 458 z "},"Š":{"ha":874,"x_min":32,"x_max":842,"o":"m 417 1000 q 566 978 497 1000 q 688 917 635 957 q 776 819 740 876 q 828 688 813 761 l 647 688 q 560 795 615 765 q 419 825 504 825 q 347 817 381 825 q 289 792 314 808 q 249 753 264 775 q 235 703 235 731 q 260 649 235 669 q 329 615 286 628 q 426 592 372 601 q 538 571 481 583 q 649 539 596 558 q 746 488 703 519 q 815 408 789 457 q 842 285 842 358 q 814 165 842 219 q 737 70 786 110 q 619 8 688 31 q 469 -14 551 -14 q 303 9 379 -14 q 170 74 228 32 q 77 177 113 117 q 32 313 42 238 l 213 313 q 301 199 240 236 q 468 161 363 161 q 543 170 508 161 q 603 197 578 179 q 644 238 629 214 q 660 289 660 261 q 633 347 660 325 q 565 383 607 369 q 468 408 522 397 q 356 431 414 418 q 244 463 299 443 q 148 513 190 482 q 79 591 106 544 q 53 708 53 638 q 81 823 53 769 q 157 916 108 876 q 272 978 206 956 q 417 1000 339 1000 m 568 1342 l 685 1342 l 542 1099 l 339 1099 l 194 1342 l 313 1342 l 440 1218 l 568 1342 z "},"š":{"ha":699,"x_min":33,"x_max":667,"o":"m 336 736 q 543 676 464 736 q 657 496 622 617 l 482 496 q 424 556 460 538 q 328 575 389 575 q 284 571 303 575 q 251 558 265 567 q 231 539 238 550 q 224 514 224 528 q 242 479 224 492 q 292 459 261 467 q 363 446 324 451 q 444 431 403 440 q 526 408 486 422 q 597 368 567 393 q 647 304 628 343 q 667 208 667 265 q 647 115 667 156 q 588 45 626 74 q 495 1 550 17 q 371 -14 440 -14 q 241 3 300 -14 q 138 51 182 19 q 67 126 94 82 q 33 228 40 171 l 207 228 q 266 166 229 185 q 369 147 303 147 q 420 151 397 147 q 459 164 443 156 q 483 184 475 172 q 492 211 492 196 q 472 247 492 233 q 422 268 453 260 q 351 283 392 276 q 270 299 311 290 q 189 324 229 308 q 117 364 149 339 q 67 426 86 389 q 49 517 49 464 q 70 605 49 564 q 131 674 92 646 q 222 719 169 703 q 336 736 275 736 m 465 1078 l 582 1078 l 439 835 l 236 835 l 92 1078 l 210 1078 l 338 954 l 465 1078 z "},"Ÿ":{"ha":929,"x_min":18,"x_max":911,"o":"m 378 421 l 18 986 l 225 986 l 465 608 l 704 986 l 911 986 l 551 421 l 551 0 l 378 0 l 378 421 m 271 1099 l 271 1268 l 440 1268 l 440 1099 l 271 1099 m 514 1099 l 514 1268 l 683 1268 l 683 1099 l 514 1099 z "},"Ž":{"ha":844,"x_min":46,"x_max":800,"o":"m 46 149 l 549 818 l 58 818 l 58 986 l 786 986 l 786 838 l 283 168 l 800 168 l 800 0 l 46 0 l 46 149 m 549 1342 l 665 1342 l 522 1099 l 319 1099 l 175 1342 l 293 1342 l 421 1218 l 549 1342 z "},"ž":{"ha":742,"x_min":46,"x_max":696,"o":"m 46 133 l 421 561 l 60 561 l 60 722 l 669 722 l 669 589 l 294 161 l 696 161 l 696 0 l 46 0 l 46 133 m 501 1078 l 618 1078 l 475 835 l 272 835 l 128 1078 l 246 1078 l 374 954 l 501 1078 z "},"ƒ":{"ha":732,"x_min":32,"x_max":701,"o":"m 701 825 l 422 825 l 422 722 l 628 722 l 628 561 l 422 561 l 422 -160 q 376 -303 422 -260 q 236 -347 329 -347 l 32 -347 l 32 -186 l 254 -186 l 254 561 l 168 561 l 168 722 l 254 722 l 254 799 q 301 942 254 897 q 440 986 349 986 l 701 986 l 701 825 z "},"ˆ":{"ha":554,"x_min":32,"x_max":522,"o":"m 278 1013 l 150 889 l 32 889 l 176 1132 l 379 1132 l 522 889 l 406 889 l 278 1013 z "},"ˇ":{"ha":554,"x_min":32,"x_max":522,"o":"m 406 1132 l 522 1132 l 379 889 l 176 889 l 32 1132 l 150 1132 l 278 1008 l 406 1132 z "},"˘":{"ha":542,"x_min":32,"x_max":510,"o":"m 151 1135 q 159 1090 151 1111 q 182 1054 167 1069 q 220 1030 197 1039 q 272 1021 243 1021 q 324 1030 301 1021 q 362 1054 347 1039 q 383 1090 376 1069 q 390 1135 390 1111 l 510 1135 q 492 1039 510 1083 q 442 961 474 994 q 367 908 411 928 q 271 889 324 889 q 176 908 219 889 q 100 962 132 928 q 50 1040 68 996 q 32 1135 32 1085 l 151 1135 z "},"˙":{"ha":233,"x_min":32,"x_max":201,"o":"m 32 889 l 32 1058 l 201 1058 l 201 889 l 32 889 z "},"˚":{"ha":435,"x_min":32,"x_max":403,"o":"m 32 1029 q 78 1135 32 1097 q 207 1174 124 1174 l 222 1174 q 356 1135 308 1174 q 403 1029 403 1097 q 356 926 403 963 q 222 889 310 889 l 207 889 q 78 926 124 889 q 32 1029 32 963 m 151 1035 q 163 1005 151 1014 q 208 996 175 996 l 221 996 q 270 1005 257 996 q 283 1035 283 1014 q 270 1058 283 1050 q 221 1067 257 1067 l 208 1067 q 164 1058 176 1067 q 151 1035 151 1050 z "},"˛":{"ha":303,"x_min":43,"x_max":260,"o":"m 242 -144 l 168 -144 q 114 -137 138 -144 q 75 -116 90 -129 q 51 -84 60 -103 q 43 -42 43 -65 q 72 24 43 -1 q 163 67 101 49 l 242 92 l 260 36 l 178 14 q 145 -3 156 7 q 135 -26 135 -12 q 144 -47 135 -39 q 169 -54 154 -54 l 242 -54 l 242 -144 z "},"˜":{"ha":549,"x_min":32,"x_max":517,"o":"m 32 939 q 69 1085 32 1031 q 174 1140 107 1140 q 241 1125 214 1140 q 288 1092 268 1110 q 324 1059 307 1074 q 358 1044 340 1044 q 388 1057 378 1044 q 397 1096 397 1069 l 517 1096 q 482 944 517 994 q 376 894 447 894 q 312 909 338 894 q 266 942 286 924 q 228 976 246 961 q 192 990 211 990 q 162 978 172 990 q 151 939 151 965 l 32 939 z "},"˝":{"ha":743,"x_min":32,"x_max":713,"o":"m 150 889 l 32 889 l 176 1132 l 407 1132 l 150 889 m 456 889 l 338 889 l 482 1132 l 713 1132 l 456 889 z "},"μ":{"ha":774,"x_min":32,"x_max":742,"o":"m 200 354 q 207 258 200 297 q 230 196 214 219 q 272 163 246 172 q 338 153 297 153 q 420 165 378 153 q 497 203 463 178 q 553 269 532 229 q 575 364 575 308 l 575 721 l 742 721 l 742 -1 l 575 -1 l 575 86 q 457 10 525 36 q 310 -15 389 -15 q 251 -10 278 -15 q 200 6 224 -4 l 200 -347 l 32 -347 l 32 722 l 200 722 l 200 354 z "},"–":{"ha":689,"x_min":32,"x_max":657,"o":"m 657 574 l 657 413 l 32 413 l 32 574 l 657 574 z "},"—":{"ha":1474,"x_min":32,"x_max":1442,"o":"m 1442 574 l 1442 413 l 32 413 l 32 574 l 1442 574 z "},"‘":{"ha":233,"x_min":32,"x_max":201,"o":"m 201 828 l 32 828 l 32 1053 q 56 1123 32 1100 q 125 1146 81 1146 l 200 1146 l 200 1056 l 126 1056 l 126 997 l 201 997 l 201 828 z "},"’":{"ha":233,"x_min":32,"x_max":201,"o":"m 32 1146 l 201 1146 l 201 919 q 177 850 201 872 q 108 828 153 828 l 33 828 l 33 918 l 107 918 l 107 976 l 32 976 l 32 1146 z "},"‚":{"ha":233,"x_min":32,"x_max":201,"o":"m 32 156 l 201 156 l 201 -71 q 177 -140 201 -118 q 108 -162 153 -162 l 33 -162 l 33 -72 l 107 -72 l 107 -14 l 32 -14 l 32 156 z "},"“":{"ha":449,"x_min":32,"x_max":418,"o":"m 201 828 l 32 828 l 32 1053 q 56 1123 32 1100 q 125 1146 81 1146 l 200 1146 l 200 1056 l 126 1056 l 126 997 l 201 997 l 201 828 m 418 828 l 249 828 l 249 1053 q 273 1123 249 1100 q 342 1146 297 1146 l 417 1146 l 417 1056 l 343 1056 l 343 997 l 418 997 l 418 828 z "},"”":{"ha":449,"x_min":32,"x_max":418,"o":"m 32 1146 l 201 1146 l 201 919 q 177 849 201 872 q 108 826 153 826 l 33 826 l 33 917 l 107 917 l 107 976 l 32 976 l 32 1146 m 249 1146 l 418 1146 l 418 919 q 394 849 418 872 q 325 826 369 826 l 249 826 l 249 917 l 324 917 l 324 976 l 249 976 l 249 1146 z "},"„":{"ha":449,"x_min":32,"x_max":418,"o":"m 32 169 l 201 169 l 201 -57 q 177 -126 201 -104 q 108 -149 153 -149 l 33 -149 l 33 -58 l 107 -58 l 107 0 l 32 0 l 32 169 m 249 169 l 418 169 l 418 -57 q 394 -126 418 -104 q 325 -149 369 -149 l 249 -149 l 249 -58 l 324 -58 l 324 0 l 249 0 l 249 169 z "},"†":{"ha":689,"x_min":32,"x_max":657,"o":"m 257 578 l 257 986 l 431 986 l 431 578 l 657 578 l 657 410 l 431 410 l 431 0 l 257 0 l 257 410 l 32 410 l 32 578 l 257 578 z "},"‡":{"ha":689,"x_min":32,"x_max":657,"o":"m 257 758 l 257 986 l 431 986 l 431 758 l 657 758 l 657 590 l 431 590 l 431 397 l 657 397 l 657 229 l 431 229 l 431 0 l 257 0 l 257 229 l 32 229 l 32 397 l 257 397 l 257 590 l 32 590 l 32 758 l 257 758 z "},"•":{"ha":449,"x_min":33,"x_max":417,"o":"m 33 474 q 75 606 33 568 q 192 643 117 643 l 253 643 q 319 635 289 643 q 370 608 349 628 q 404 556 392 589 q 417 474 417 524 l 417 428 q 404 345 417 378 q 370 294 392 313 q 319 267 349 275 q 253 260 289 260 l 192 260 q 75 297 117 260 q 33 428 33 335 l 33 474 z "},"…":{"ha":754,"x_min":32,"x_max":724,"o":"m 32 0 l 32 169 l 201 169 l 201 0 l 32 0 m 293 0 l 293 169 l 463 169 l 463 0 l 293 0 m 554 0 l 554 169 l 724 169 l 724 0 l 554 0 z "},"‰":{"ha":2004,"x_min":32,"x_max":1972,"o":"m 1122 986 l 449 0 l 260 0 l 933 986 l 1122 986 m 760 275 q 781 404 760 349 q 842 497 803 460 q 935 554 881 535 q 1053 574 989 574 q 1172 554 1118 574 q 1265 497 1226 535 q 1326 404 1304 460 q 1347 275 1347 349 q 1326 149 1347 203 q 1265 58 1304 94 q 1172 4 1226 22 q 1053 -14 1118 -14 q 935 4 989 -14 q 842 58 881 22 q 781 147 803 93 q 760 275 760 201 m 1385 275 q 1406 404 1385 349 q 1467 497 1428 460 q 1560 554 1506 535 q 1678 574 1614 574 q 1797 554 1743 574 q 1890 497 1851 535 q 1951 404 1929 460 q 1972 275 1972 349 q 1951 149 1972 203 q 1890 58 1929 94 q 1797 4 1851 22 q 1678 -14 1743 -14 q 1560 4 1614 -14 q 1467 58 1506 22 q 1406 147 1428 93 q 1385 275 1385 201 m 32 701 q 53 831 32 775 q 114 924 75 886 q 207 981 153 961 q 325 1000 261 1000 q 444 981 390 1000 q 538 924 499 961 q 598 831 576 886 q 619 701 619 775 q 598 575 619 629 q 538 485 576 521 q 444 431 499 449 q 325 413 390 413 q 207 431 261 413 q 114 484 153 449 q 53 574 75 519 q 32 701 32 628 m 917 279 q 926 213 917 240 q 955 168 936 185 q 999 144 974 151 q 1053 136 1024 136 q 1108 144 1083 136 q 1151 169 1133 151 q 1179 213 1169 186 q 1189 279 1189 240 q 1151 388 1189 353 q 1053 424 1113 424 q 956 389 994 424 q 917 279 917 354 m 1542 279 q 1552 213 1542 240 q 1581 168 1563 185 q 1624 144 1599 151 q 1678 136 1650 136 q 1733 144 1708 136 q 1777 169 1758 151 q 1806 213 1796 186 q 1815 279 1815 240 q 1806 343 1815 315 q 1777 389 1796 371 q 1733 415 1758 407 q 1678 424 1708 424 q 1624 415 1650 424 q 1581 390 1599 407 q 1552 344 1563 372 q 1542 279 1542 317 m 189 706 q 199 639 189 667 q 228 594 210 611 q 271 570 246 578 q 325 563 296 563 q 381 570 356 563 q 424 595 406 578 q 451 640 442 613 q 461 706 461 667 q 423 815 461 779 q 325 850 385 850 q 228 815 267 850 q 189 706 189 781 z "},"‹":{"ha":599,"x_min":32,"x_max":567,"o":"m 357 485 l 567 375 l 567 192 l 32 474 l 32 510 l 567 793 l 567 610 l 357 499 l 357 485 z "},"›":{"ha":599,"x_min":32,"x_max":567,"o":"m 242 499 l 32 610 l 32 793 l 567 510 l 567 474 l 32 192 l 32 375 l 242 485 l 242 499 z "},"⁄":{"ha":867,"x_min":32,"x_max":836,"o":"m 836 986 l 163 0 l 32 0 l 706 986 l 836 986 z "},"€":{"ha":1103,"x_min":32,"x_max":1071,"o":"m 110 453 q 110 472 110 463 q 110 492 110 482 q 110 513 110 503 q 111 533 110 524 l 32 533 l 32 696 l 140 696 q 208 824 165 768 q 310 920 251 881 q 442 980 369 960 q 600 1000 514 1000 q 772 976 693 1000 q 910 906 850 951 q 1010 795 969 861 q 1071 646 1051 729 l 889 646 q 839 726 867 692 q 777 781 811 760 q 700 814 743 803 q 603 825 657 825 q 451 792 515 825 q 347 696 386 758 l 622 696 l 622 533 l 293 533 q 292 513 293 524 q 290 492 290 503 q 292 472 290 482 q 293 453 293 463 l 622 453 l 622 290 l 344 290 q 390 234 364 258 q 449 194 417 210 q 519 169 481 178 q 603 161 558 161 q 776 204 710 161 q 889 340 842 247 l 1071 340 q 1010 190 1051 256 q 908 78 968 124 q 770 10 849 33 q 600 -14 692 -14 q 441 6 514 -14 q 309 66 368 26 q 207 162 250 106 q 140 290 164 218 l 32 290 l 32 453 l 110 453 z "},"™":{"ha":790,"x_min":33,"x_max":758,"o":"m 169 915 l 33 915 l 33 1000 l 456 1000 l 569 735 l 682 1000 l 758 1000 l 758 613 l 674 613 l 674 763 l 610 613 l 529 613 l 464 763 l 464 613 l 381 613 l 381 915 l 254 915 l 254 613 l 169 613 l 169 915 z "},"−":{"ha":689,"x_min":32,"x_max":657,"o":"m 657 574 l 657 413 l 32 413 l 32 574 l 657 574 z "},"":{"ha":861,"x_min":32,"x_max":815,"o":"m 32 356 q 56 522 32 451 q 125 641 81 593 q 231 713 169 689 q 367 736 293 736 q 482 718 429 736 q 575 664 535 700 l 575 722 l 743 722 l 743 161 l 815 161 l 815 0 l 761 0 q 666 19 707 0 q 607 78 625 39 q 503 8 564 31 q 367 -14 442 -14 q 231 8 293 -14 q 125 76 169 31 q 56 192 81 122 q 32 356 32 261 m 207 357 q 220 263 207 301 q 258 200 233 224 q 317 165 283 176 q 392 154 351 154 q 467 165 433 154 q 524 200 500 176 q 562 263 549 224 q 575 357 575 301 q 562 453 575 414 q 524 519 549 493 q 467 556 500 544 q 392 568 433 568 q 317 556 351 568 q 258 519 283 544 q 220 453 233 493 q 207 357 207 414 z "},"":{"ha":467,"x_min":32,"x_max":436,"o":"m 292 722 l 292 161 l 436 161 l 436 0 l 310 0 q 171 44 218 0 q 124 188 124 89 l 124 561 l 32 561 l 32 722 l 292 722 m 124 817 l 124 986 l 293 986 l 293 817 l 124 817 z "},"":{"ha":789,"x_min":32,"x_max":743,"o":"m 32 356 q 56 522 32 451 q 125 641 81 593 q 231 713 169 689 q 367 736 293 736 q 482 718 429 736 q 575 664 535 700 l 575 722 l 743 722 l 743 0 l 589 0 l 575 53 q 482 3 535 19 q 367 -14 429 -14 q 231 8 293 -14 q 125 76 169 31 q 56 192 81 122 q 32 356 32 261 m 207 357 q 220 263 207 301 q 258 200 233 224 q 317 165 283 176 q 392 154 351 154 q 467 165 433 154 q 524 200 500 176 q 562 263 549 224 q 575 357 575 301 q 562 453 575 414 q 524 519 549 493 q 467 556 500 544 q 392 568 433 568 q 317 556 351 568 q 258 519 283 544 q 220 453 233 493 q 207 357 207 414 z "},"":{"ha":467,"x_min":32,"x_max":436,"o":"m 292 986 l 292 163 l 436 163 l 436 0 l 310 0 q 171 44 218 0 q 124 188 124 89 l 124 825 l 32 825 l 32 986 l 292 986 z "},"":{"ha":1025,"x_min":32,"x_max":993,"o":"m 813 646 q 761 726 789 692 q 699 781 733 760 q 622 814 665 803 q 525 825 579 825 q 394 802 451 825 q 297 736 338 779 q 235 631 256 693 q 214 492 214 569 q 238 344 214 407 q 303 241 261 282 q 403 181 344 200 q 531 161 461 161 q 716 208 643 161 q 813 340 789 254 l 504 340 l 504 508 l 992 508 l 992 396 q 958 229 992 304 q 862 100 924 154 q 713 16 800 46 q 521 -14 626 -14 q 318 21 408 -14 q 165 121 228 56 q 67 280 101 186 q 32 492 32 374 q 67 705 32 610 q 165 865 101 800 q 320 965 229 931 q 522 1000 411 1000 q 695 976 617 1000 q 833 906 774 951 q 933 795 893 861 q 993 646 974 729 l 813 646 z "},"":{"ha":871,"x_min":18,"x_max":854,"o":"m 204 722 l 436 232 l 668 722 l 854 722 l 425 -187 q 384 -265 403 -235 q 342 -314 365 -296 q 288 -340 319 -332 q 207 -347 256 -347 l 33 -347 l 33 -186 l 239 -186 l 343 36 l 18 722 l 204 722 z "},"":{"ha":815,"x_min":32,"x_max":783,"o":"m 32 217 q 110 385 32 321 q 326 449 188 449 l 543 449 l 543 561 l 126 561 l 126 722 l 525 722 q 665 678 618 722 q 711 535 711 633 l 711 161 l 783 161 l 783 0 l 729 0 q 624 22 665 0 q 563 90 582 43 q 449 13 514 40 q 315 -14 385 -14 q 197 1 249 -14 q 108 46 144 17 q 51 119 71 75 q 32 217 32 163 m 207 235 q 244 175 207 196 q 342 154 281 154 q 423 163 386 154 q 487 188 460 171 q 528 231 514 206 q 543 289 543 256 l 543 324 l 353 324 q 242 303 276 324 q 207 235 207 282 z "},"":{"ha":897,"x_min":46,"x_max":867,"o":"m 46 986 l 472 986 q 640 970 571 986 q 753 919 710 954 q 818 828 797 883 q 839 694 839 774 q 775 493 839 560 q 565 414 711 426 l 867 0 l 650 0 l 353 410 l 221 410 l 221 0 l 46 0 l 46 986 m 464 578 q 556 584 519 578 q 616 603 593 590 q 648 640 639 617 q 657 696 657 663 q 647 753 657 729 q 615 792 638 778 q 556 812 593 806 q 464 818 519 818 l 221 818 l 221 578 l 464 578 z "},"":{"ha":917,"x_min":46,"x_max":899,"o":"m 46 986 l 221 986 l 221 607 l 639 986 l 899 986 l 457 585 l 899 0 l 681 0 l 326 467 l 221 369 l 221 0 l 46 0 l 46 986 z "},"":{"ha":746,"x_min":46,"x_max":728,"o":"m 46 0 l 46 986 l 214 986 l 214 490 l 476 722 l 728 722 l 410 438 l 728 0 l 521 0 l 283 325 l 214 263 l 214 0 l 46 0 z "},"":{"ha":836,"x_min":32,"x_max":792,"o":"m 792 -160 q 745 -303 792 -260 q 606 -347 699 -347 l 338 -347 l 338 -186 l 624 -186 l 624 561 l 286 561 l 286 0 l 118 0 l 118 561 l 32 561 l 32 722 l 118 722 l 118 799 q 165 942 118 897 q 304 986 211 986 l 564 986 l 564 825 l 286 825 l 286 722 l 792 722 l 792 -160 z "},"":{"ha":1115,"x_min":32,"x_max":1069,"o":"m 32 722 l 118 722 l 118 799 q 165 942 118 897 q 304 986 211 986 l 564 986 l 564 825 l 286 825 l 286 722 l 624 722 l 638 917 l 792 917 l 792 722 l 996 722 l 996 561 l 792 561 l 792 161 l 1069 161 l 1069 0 l 810 0 q 670 44 717 0 q 624 188 624 89 l 624 561 l 286 561 l 286 0 l 118 0 l 118 561 l 32 561 l 32 722 z "},"":{"ha":1342,"x_min":32,"x_max":1297,"o":"m 1297 -160 q 1250 -303 1297 -260 q 1111 -347 1203 -347 l 843 -347 l 843 -186 l 1129 -186 l 1129 561 l 792 561 l 792 0 l 624 0 l 624 561 l 286 561 l 286 0 l 118 0 l 118 561 l 32 561 l 32 722 l 118 722 l 118 799 q 165 942 118 897 q 304 986 211 986 l 564 986 l 564 825 l 286 825 l 286 722 l 624 722 l 624 799 q 670 942 624 897 q 810 986 717 986 l 1069 986 l 1069 825 l 792 825 l 792 722 l 1297 722 l 1297 -160 z "},"":{"ha":1621,"x_min":32,"x_max":1575,"o":"m 32 722 l 118 722 l 118 799 q 165 942 118 897 q 304 986 211 986 l 564 986 l 564 825 l 286 825 l 286 722 l 624 722 l 624 799 q 670 942 624 897 q 810 986 717 986 l 1069 986 l 1069 825 l 792 825 l 792 722 l 1129 722 l 1143 917 l 1297 917 l 1297 722 l 1501 722 l 1501 561 l 1297 561 l 1297 161 l 1575 161 l 1575 0 l 1315 0 q 1176 44 1222 0 q 1129 188 1129 89 l 1129 561 l 792 561 l 792 0 l 624 0 l 624 561 l 286 561 l 286 0 l 118 0 l 118 561 l 32 561 l 32 722 z "},"":{"ha":1361,"x_min":32,"x_max":1315,"o":"m 869 722 l 869 875 l 815 889 q 739 900 771 900 q 669 882 703 900 q 636 793 636 864 q 650 706 636 747 q 681 623 664 664 q 715 540 699 582 q 735 453 731 499 l 561 453 q 498 540 542 513 q 389 568 454 568 q 312 556 346 568 q 255 517 278 543 q 219 451 232 490 q 207 360 207 413 q 219 269 207 307 q 255 205 232 231 q 312 167 278 179 q 389 154 346 154 q 501 183 458 154 q 561 268 543 211 l 735 268 q 703 154 731 206 q 628 65 675 103 q 521 7 582 28 q 389 -14 460 -14 q 241 11 307 -14 q 128 84 175 36 q 57 201 82 132 q 32 360 32 271 q 57 519 32 449 q 128 637 82 589 q 241 710 175 685 q 389 736 307 736 q 435 733 413 736 q 478 726 457 731 q 466 776 469 753 q 463 818 463 799 q 494 953 463 896 q 581 1040 525 1010 q 678 1073 636 1071 q 729 1075 721 1075 q 878 1050 797 1075 l 1038 1000 l 1038 722 l 1243 722 l 1243 561 l 1038 561 l 1038 161 l 1315 161 l 1315 0 l 1056 0 q 917 44 964 0 q 869 188 869 89 l 869 561 l 783 561 l 783 722 l 869 722 z "},"":{"ha":1115,"x_min":32,"x_max":1069,"o":"m 118 722 l 132 917 l 286 917 l 286 722 l 624 722 l 638 917 l 792 917 l 792 722 l 996 722 l 996 561 l 792 561 l 792 161 l 1069 161 l 1069 0 l 810 0 q 670 44 717 0 q 624 188 624 89 l 624 561 l 286 561 l 286 161 l 564 161 l 564 0 l 304 0 q 165 44 211 0 q 118 188 118 89 l 118 561 l 32 561 l 32 722 l 118 722 z "},"":{"ha":1672,"x_min":18,"x_max":1628,"o":"m 381 818 l 18 818 l 18 986 l 1085 986 l 1085 635 q 1203 710 1135 683 q 1349 736 1271 736 q 1557 668 1486 736 q 1628 465 1628 600 l 1628 -1 l 1460 -1 l 1460 367 q 1453 463 1460 424 q 1430 525 1446 501 q 1388 558 1414 549 q 1322 568 1361 568 q 1238 556 1281 568 q 1162 519 1196 544 q 1106 453 1128 493 q 1085 357 1085 414 l 1085 0 l 917 0 l 917 818 l 556 818 l 556 0 l 381 0 l 381 818 z "},"ﬀ":{"ha":1115,"x_min":32,"x_max":1069,"o":"m 32 722 l 118 722 l 118 799 q 165 942 118 897 q 304 986 211 986 l 564 986 l 564 825 l 286 825 l 286 722 l 624 722 l 624 799 q 670 942 624 897 q 810 986 717 986 l 1069 986 l 1069 825 l 792 825 l 792 722 l 996 722 l 996 561 l 792 561 l 792 0 l 624 0 l 624 561 l 286 561 l 286 0 l 118 0 l 118 561 l 32 561 l 32 722 z "},"ﬁ":{"ha":836,"x_min":32,"x_max":792,"o":"m 32 722 l 118 722 l 118 799 q 165 942 118 897 q 304 986 211 986 l 564 986 l 564 825 l 286 825 l 286 722 l 792 722 l 792 0 l 624 0 l 624 561 l 286 561 l 286 0 l 118 0 l 118 561 l 32 561 l 32 722 z "},"ﬂ":{"ha":836,"x_min":32,"x_max":792,"o":"m 32 722 l 118 722 l 118 799 q 165 942 118 897 q 304 986 211 986 l 792 986 l 792 0 l 624 0 l 624 825 l 286 825 l 286 722 l 492 722 l 492 561 l 286 561 l 286 0 l 118 0 l 118 561 l 32 561 l 32 722 z "},"ﬃ":{"ha":1342,"x_min":32,"x_max":1297,"o":"m 32 722 l 118 722 l 118 799 q 165 942 118 897 q 304 986 211 986 l 564 986 l 564 825 l 286 825 l 286 722 l 624 722 l 624 799 q 670 942 624 897 q 810 986 717 986 l 1069 986 l 1069 825 l 792 825 l 792 722 l 1297 722 l 1297 0 l 1129 0 l 1129 561 l 792 561 l 792 0 l 624 0 l 624 561 l 286 561 l 286 0 l 118 0 l 118 561 l 32 561 l 32 722 z "},"ﬄ":{"ha":1342,"x_min":32,"x_max":1297,"o":"m 32 722 l 118 722 l 118 799 q 165 942 118 897 q 304 986 211 986 l 564 986 l 564 825 l 286 825 l 286 722 l 624 722 l 624 799 q 670 942 624 897 q 810 986 717 986 l 1297 986 l 1297 0 l 1129 0 l 1129 825 l 792 825 l 792 722 l 996 722 l 996 561 l 792 561 l 792 0 l 624 0 l 624 561 l 286 561 l 286 0 l 118 0 l 118 561 l 32 561 l 32 722 z "},"ﬆ":{"ha":1279,"x_min":32,"x_max":1235,"o":"m 335 736 q 366 735 351 736 q 394 729 381 733 q 384 778 388 756 q 381 818 381 800 q 412 953 381 896 q 499 1040 443 1010 q 597 1073 554 1071 q 647 1075 639 1075 q 796 1050 717 1075 l 956 1000 l 956 722 l 1161 722 l 1161 561 l 956 561 l 956 161 l 1235 161 l 1235 0 l 974 0 q 835 44 882 0 q 789 188 789 89 l 789 561 l 701 561 l 701 722 l 789 722 l 789 875 l 733 889 q 657 900 689 900 q 588 882 621 900 q 554 793 554 864 q 566 719 554 756 q 594 647 578 683 q 627 573 610 610 q 656 496 644 536 l 481 496 q 424 556 458 538 q 326 575 389 575 q 251 558 279 575 q 222 514 222 542 q 255 472 222 485 q 337 450 288 458 q 444 431 386 442 q 551 397 501 421 q 633 328 600 372 q 665 208 665 285 q 587 45 665 104 q 369 -14 508 -14 q 137 51 226 -14 q 32 228 47 115 l 206 228 q 265 166 228 185 q 368 147 301 147 q 419 151 397 147 q 458 164 442 156 q 482 184 474 172 q 490 211 490 196 q 458 255 490 240 q 376 279 425 269 q 269 300 326 289 q 162 335 211 311 q 80 403 113 360 q 47 517 47 446 q 69 606 47 565 q 129 674 90 646 q 221 719 168 703 q 335 736 274 736 z "}}}
